<?xml version="1.0" standalone="no"?>
<!DOCTYPE svg PUBLIC "-//W3C//DTD SVG 1.1//EN" "http://www.w3.org/Graphics/SVG/1.1/DTD/svg11.dtd" >
<svg xmlns="http://www.w3.org/2000/svg" xmlns:xlink="http://www.w3.org/1999/xlink" version="1.1">
<metadata>
Created by FontForge 20190801 at Fri Mar 13 18:10:32 2009
 By www-data
Made with yourfonts.com. Copyright (c) 2009 Luciana Morin. All rights reserved.
</metadata>
<defs>
<font id="STARGUIDES" horiz-adv-x="2138" >
  <font-face 
    font-family="STARGUIDES"
    font-weight="400"
    font-stretch="normal"
    units-per-em="2048"
    panose-1="3 0 0 0 0 0 0 0 0 0"
    ascent="1638"
    descent="-410"
    x-height="1130"
    cap-height="1970"
    bbox="60 -984 13439 2520"
    underline-thickness="150"
    underline-position="-292"
    unicode-range="U+0020-2022"
  />
<missing-glyph horiz-adv-x="1391" 
d="M60 0v1738h1251v-1738h-1251zM140 80h1091v1578h-1091v-1578z" />
    <glyph glyph-name=".notdef" horiz-adv-x="1391" 
d="M60 0v1738h1251v-1738h-1251zM140 80h1091v1578h-1091v-1578z" />
    <glyph glyph-name=".null" horiz-adv-x="0" 
 />
    <glyph glyph-name="nonmarkingreturn" horiz-adv-x="550" 
 />
    <glyph glyph-name="space" unicode=" " horiz-adv-x="1056" 
 />
    <glyph glyph-name="space" unicode="&#xa0;" horiz-adv-x="1056" 
 />
    <glyph glyph-name="exclam" unicode="!" horiz-adv-x="1646" 
d="M292 1709q29 -51 29 -116h58q162 0 434 -58q347 58 521 58v-87h-58v-87q0 -223 87 -1303v-29l29 -144q-270 -39 -463 -116q-261 0 -261 260q-376 709 -608 1361q203 58 203 116v58l-29 58zM436 1535q0 -97 -28 -144q0 -105 86 -203l-29 -58q15 -116 87 -116l-29 -145
q2 -41 116 -145l-29 -144l58 -29l116 231h29v-86l-145 -203v-29h87l58 145h29v-58q-58 -95 -58 -174v-29q0 -58 87 -58v-174l145 145v-29q-101 -260 -145 -260q-58 0 -58 86h-29v-115h87q268 57 434 57q-29 62 -87 580q0 29 29 29q-58 549 -58 724l29 173q-29 0 -29 29
q-53 0 -231 -58q-29 0 -29 29l-145 -29h-58l-58 29q0 -115 -58 -115l-29 57q58 0 58 58zM1074 -289h115q377 -64 377 -348q0 -231 -319 -231q-425 0 -492 318q0 261 319 261zM1218 -405q-87 -136 -115 -290h-58q29 -86 173 -86h29q156 0 203 115v58q-87 203 -232 203z
M1016 -521h87q0 31 28 87h-28q-42 0 -87 -87zM958 -637q9 -58 58 -58l29 116h-29q-58 -9 -58 -58z" />
    <glyph glyph-name="quotedbl" unicode="&#x22;" horiz-adv-x="2891" 
d="M552 2375q645 0 840 -984q-127 -782 -666 -782l-116 173v29q203 118 203 406q-58 302 -58 318h-29l-145 -116h-58q-463 66 -463 435v58q0 326 492 463zM2174 2375q608 -300 608 -869l29 -289q-271 -608 -869 -608q-202 39 -202 87q23 59 376 173q87 196 87 319v231h-174
q-247 0 -434 406v145q202 405 579 405zM263 1999q29 0 29 -29h-29l-58 29l-29 -145q41 0 174 -174h-29l-116 58v-87q152 -29 174 -29v29l57 -29h58q100 87 261 116q58 -58 145 -492q0 -369 -145 -493l58 -29q347 144 347 348q-127 185 -260 463h87q0 -41 87 -173
q75 -186 144 -203h29q0 65 29 116q-359 520 -376 637h29q29 0 29 58q69 -17 145 -203h-58q67 -173 231 -348v29l-87 174v29l58 -29v29q0 279 -405 579q0 -29 -29 -29v58h-290q-260 -46 -260 -260zM1711 1999v-58q0 -87 87 -232q-29 0 -29 -29l86 -58h203l58 29l-29 58v29h58
q26 0 174 -203l-29 -58q87 0 87 -58v-28h-58v-87q0 -185 -116 -522h29q463 213 463 493l-29 58l29 58q0 664 -405 781q-50 0 -145 87q-232 0 -405 -260h-29z" />
    <glyph glyph-name="percent" unicode="%" horiz-adv-x="2515" 
d="M1537 1593q608 -129 608 -231q-1118 -1565 -1245 -1970q-87 0 -87 -87h-145q-222 0 -405 174v203q98 0 550 898q469 788 608 926h58q-695 -1100 -695 -1129l-203 -463q-58 -9 -58 -58q0 -261 174 -319l782 1043q108 243 232 376q0 -29 29 -29q202 377 260 377h29v58
q-236 86 -550 144v29q9 58 58 58zM379 1448h202q65 0 116 -260l-29 -58l29 -58q-108 -348 -347 -348h-87q-58 0 -203 232q0 492 319 492zM321 1333q29 -152 29 -174v-29h-29q0 116 -87 116l-58 -87v-58q0 -156 116 -203q289 29 289 116v87q0 145 -173 261q-57 -29 -87 -29z
M1827 377q499 0 608 -290v-29q0 -385 -580 -492q-220 179 -289 492v29q125 290 261 290zM1769 87l29 -173l-58 29v-58q56 -132 115 -145h29v58h58l116 -87q154 0 174 376q-174 0 -174 116v29h-58q-157 0 -231 -145zM436 -376q57 -29 87 -29v29l-29 145q-58 0 -58 -145z" />
    <glyph glyph-name="quotesingle" unicode="'" horiz-adv-x="951" 
d="M726 1622q60 -116 145 -116v-58h-58l-29 -347q58 -9 58 -58v-58q-87 -112 -87 -318q0 -31 29 -87l-29 -58q29 -56 29 -87q-29 0 -29 -29l-145 29h-58q-65 0 -116 -29q-338 95 -376 145v1042h29q58 0 637 29zM292 1477l-87 -202h29l87 144q-29 0 -29 29q29 0 29 29h-29z
M234 1101q312 312 318 376h-87q-231 -231 -231 -376zM176 753q58 -9 58 -57l-29 -58q184 -116 203 -116l115 58v-58l145 29v173h-58q87 145 87 203q0 29 -29 29l58 492l-58 29q-99 0 -463 -608q0 -65 -29 -116zM581 1246h29v-29q0 -42 -87 -87v58q9 58 58 58z" />
    <glyph glyph-name="parenleft" unicode="(" horiz-adv-x="1559" 
d="M900 1999h29q550 -199 550 -232q-608 -656 -608 -1187v-319q0 -194 203 -318q0 29 29 29q0 -42 144 -261q0 -132 -608 -377h-87q-434 348 -434 695q-52 0 -58 290v203q0 588 492 1042q46 103 319 319q56 -29 87 -29v58h-58v87zM1074 1854l-493 -435q-289 -452 -289 -752
q29 -57 29 -87q-58 -9 -58 -58v-232q0 -247 116 -405l-58 -29q0 -102 434 -319h29q99 101 261 145v29q-290 228 -290 376q0 62 -29 319h29l-29 58v145q0 350 521 1158q0 49 -173 87zM465 -376v-29l116 -87h58q0 48 -174 116z" />
    <glyph glyph-name="parenright" unicode=")" horiz-adv-x="1646" 
d="M436 2086h29q195 -186 638 -435q463 -553 463 -1158q0 -622 -550 -1216l-145 -29q-406 0 -579 144v116l318 521q232 261 232 667q0 365 -666 695q-45 0 -116 115q76 47 232 377l-29 58v29q87 0 173 116zM436 1970l-57 -87v-87h-58v-29q0 -126 58 -232h-29q-58 0 -58 87
h-29l-29 -116l145 -58q0 29 29 29q0 -64 260 -144q0 29 29 29q377 -464 377 -522v-202q0 -97 29 -145q-48 -402 -145 -521q-38 -98 -116 -145q-29 -51 -29 -116l-58 29q-58 -174 -116 -174q-145 -128 -145 -145q31 0 87 -29l58 29q51 -29 116 -29l58 29q51 -29 116 -29
q29 51 29 116l58 -29q0 17 115 145q-28 0 -28 29q92 0 144 203q45 0 145 260l-29 145q87 0 87 58v232q0 427 -261 868q-137 145 -260 174q-164 232 -348 232q0 39 -145 145zM465 1709q174 -123 174 -261q-37 0 -174 232v29z" />
    <glyph glyph-name="asterisk" unicode="*" horiz-adv-x="2921" 
d="M1508 2143h58q289 -760 405 -955h29l87 58q0 -116 666 -116q87 -67 87 -87l-174 -145h29q51 29 116 29v-29q-585 -350 -608 -405q490 -700 608 -1072l-58 -29q-990 637 -1361 637v-29q-840 -678 -840 -723h-87v57l58 87l-29 58l87 319v29h-29q-94 -319 -144 -319l-29 58
q376 715 376 840q-284 160 -637 290l-29 57l58 87v29h-87l29 174h29l116 -87h174q463 0 463 174q491 606 637 1013zM1508 1912l29 -145q-116 -459 -116 -492h-29v87q0 159 87 405q-116 0 -145 -348l-58 29l-145 -347h-57v-58h86v-29q0 -58 -57 -58q-57 29 -87 29
q-87 -29 -87 -58q-56 29 -87 29q-123 0 -145 -289q-58 0 -58 57l29 174h-29q-58 -9 -58 -58v-202l58 29v-58h29l58 29q0 -76 203 -145v-58q-87 -79 -261 -724h29q217 145 290 145v58l-87 -58h-29v29q68 405 174 405l-29 145l58 -29q115 271 115 376l58 -29l-29 145v29h58
q-29 56 -29 87v29h29v-58l87 58v-29q-87 -223 -203 -927q126 116 464 116h29q0 -58 405 -260q0 -52 319 -87v29q-208 457 -290 463q-116 99 -116 232q607 405 637 405v58h-318l-58 -29q0 58 -174 87q0 -58 -58 -58l-173 29q0 -87 -58 -87q-116 269 -203 724v203h-58z
M321 1188h58v-29q0 -58 -58 -58t-58 58zM436 782q29 -56 29 -86h58v173q-41 0 -87 -87zM2290 -202q0 -35 203 -145h29q-57 132 -116 145h-116zM610 -492h29l87 116h-29q-43 0 -87 -116z" />
    <glyph glyph-name="plus" unicode="+" horiz-adv-x="2167" 
d="M668 1767h492l174 -29h87q29 -51 29 -116v-231q0 -290 58 -580h232l202 -29v58h87v-173q0 -201 58 -551h-29q-202 0 -550 -58q0 -86 29 -86l-29 -145v-87l29 -290l-203 -87v-29h-260l-290 -29q-87 72 -203 724q-95 58 -173 58h-203q-87 0 -145 435q21 174 58 174l463 28
l145 -28v-87l-145 29h-145q-57 -9 -57 -58l-58 29h-87l58 -116h-29l-58 29v-116q0 -232 203 -232q30 0 86 29l58 -29q15 0 116 29q78 -11 116 -145l-29 -115q58 -493 116 -493q327 58 521 58v58h-87v29l58 87v174l-29 289q123 87 232 87q206 -29 232 -29l173 29
q-58 373 -58 492l-144 29l-348 -29q-58 227 -87 956q-22 0 -174 29l-405 -29v-29q38 -483 58 -521q-29 -56 -29 -87q0 -181 87 -347l-58 -29q-87 18 -87 231h-29v-87h-29l-58 29q58 289 58 522v405z" />
    <glyph glyph-name="comma" unicode="," horiz-adv-x="1472" 
d="M610 319q782 -29 782 -116v-29q-435 -622 -724 -926h-116q-492 0 -492 115q0 214 434 753q0 113 116 203zM292 -579q0 -41 87 -87h144q163 0 377 377q201 218 318 434v29h-405q-241 0 -319 -260q0 -62 -202 -464v-29z" />
    <glyph glyph-name="hyphen" unicode="-" horiz-adv-x="2052" 
d="M1942 1188q29 -56 29 -87q-144 -434 -260 -666l29 -58v-29q-247 -116 -811 -116h-464q-405 0 -405 145q0 447 116 579q0 145 1622 203q0 29 144 29zM987 898v-29h-29q-58 0 -58 58l-145 -87v58h-29q-66 0 -87 -145h-29v116h-58l-87 -58l-57 29q-58 -106 -58 -231v-174h29
q57 247 57 318l58 -29l-29 -202v-87q9 -58 58 -58h58q0 174 58 174q0 -174 58 -174q9 58 58 58q9 -58 58 -58h434q58 0 58 58l58 -29h203q224 311 261 637v29q-307 -108 -840 -174zM234 667q0 -87 -29 -87q29 -51 29 -116q58 0 58 58v145h-58zM176 406v-58q31 0 87 -29v58
q-31 0 -87 29z" />
    <glyph glyph-name="period" unicode="." horiz-adv-x="980" 
d="M321 464h29q384 0 550 -492q-65 -290 -377 -290h-87q-202 0 -202 58l-58 -29q-116 39 -116 261v231q38 261 261 261zM292 116h29q115 58 173 174l-29 58q-115 0 -173 -232zM263 -86l-58 29v-29q43 -116 87 -116h58q192 260 231 260v-29q-116 -130 -116 -202h29
q203 0 203 260v29q-74 0 -87 145h-29z" />
    <glyph glyph-name="slash" unicode="/" horiz-adv-x="1502" 
d="M900 1796q66 0 521 -87q-116 -76 -116 -145q-116 -420 -463 -1303q-97 -146 -145 -463h29q-76 -186 -145 -203q-375 0 -521 174v87q0 208 521 1766h29l-29 58v58q17 0 319 58zM726 1564h29q132 56 145 116q-29 0 -29 29q-126 -29 -145 -145zM176 -144h58l87 58h29v-87
h173q97 71 145 231l-29 58q145 222 174 406q84 0 318 782l116 231v116l-58 -29h-58v58h-115q-435 -282 -435 -608l-405 -1187v-29z" />
    <glyph glyph-name="zero" unicode="0" horiz-adv-x="1530" 
d="M784 1477h87q289 0 463 -463q116 -654 116 -927v-29q-140 -724 -666 -724q-695 200 -695 927l-29 145q127 985 463 985q0 63 261 86zM263 522l29 -58q0 -31 -29 -87q36 -337 173 -492h-57q349 -401 405 -406v58l145 -29q434 243 434 695q-97 1216 -492 1216
q-135 0 -348 -231q-260 -427 -260 -666zM726 811q132 -56 145 -115v-29l-116 57q-47 -68 -87 -231q58 -338 145 -435q-29 -56 -29 -86l58 -29q47 0 116 202l-29 58q0 29 29 29l-29 145v58h58q0 -120 29 -232q0 -347 -174 -347q-232 0 -290 782q23 98 174 173zM871 667
q58 -10 58 -58v-58q-58 0 -58 58v58zM436 -115h29q42 0 87 -87h-29q-41 0 -87 87zM552 -202h29q58 -9 58 -58v-29q-41 0 -87 87z" />
    <glyph glyph-name="one" unicode="1" horiz-adv-x="1762" 
d="M1045 1883h434l58 -29l-29 -203v-58l58 -87q0 -610 116 -2172h-29q-408 29 -695 29h-348q-174 75 -174 319h29l-29 58v116l145 29h406v-58q-103 0 -290 -116q-56 29 -87 29v-145q0 -58 290 -87q9 58 58 58q145 -66 145 -87l57 29l145 -29q115 29 203 29q-29 751 -58 869
l29 58q-38 373 -87 434q58 0 58 58l-87 145v29q58 0 58 29l-87 145v29q47 0 87 58q-29 56 -29 86l29 58q-29 48 -29 145h-232v-29l145 -58v-58q-263 145 -376 145l29 -58q-186 0 -261 -145q-174 -112 -174 -144q29 0 29 -29q-144 -8 -144 -87v-29l28 -58h-28l-58 29
l-29 -116q29 0 29 -29h-87v-58q0 -66 145 -87v-29h-58l-145 29h-29v-29q68 0 318 -173q0 110 145 260v58q-87 0 -87 58l145 -29q42 0 87 87l-116 116h29q95 -58 174 -58v116q245 -145 260 -145v-58l-57 29h-58v-29q0 -65 29 -116q-29 -56 -29 -87l29 -116q0 -28 -29 -28
l115 -898h-57q-79 0 -145 1129v87h-58q-319 -465 -319 -492h-58q-238 0 -434 289v116q90 70 463 608q133 0 522 348zM1045 1738h376q0 58 -58 58h-260q-58 -9 -58 -58z" />
    <glyph glyph-name="two" unicode="2" horiz-adv-x="2109" 
d="M1131 1767q580 -197 580 -492q0 -453 -435 -1130q-29 -115 -29 -202q56 -29 87 -29q83 0 666 86h29v-57q0 -245 -29 -724h-753v58q203 0 637 28l29 348v261l-608 -116q-50 29 -116 29l-115 -58l-58 29q-56 -29 -87 -29l-29 58v29q0 235 463 868l145 406l-29 58l29 58
q0 275 -550 347q-105 0 -319 -145q-79 0 -463 -434q10 -68 174 -203q399 377 579 377q119 -40 174 -145v-116l-782 -1042l58 -116l-29 -58q30 -104 173 -232h-29q-56 29 -86 29v-58q0 -72 260 -173v-58h-289q-97 0 -203 579q203 370 666 984q58 218 58 232h58v-87h29v116
q0 58 -87 58q-91 0 -406 -261q-56 -9 -86 -173h-116q0 52 -203 347l-29 58q246 579 492 579q243 87 579 116zM1103 1680q0 -58 202 -87q0 68 -202 87zM987 -752h173v-29h-173v29z" />
    <glyph glyph-name="three" unicode="3" horiz-adv-x="2572" 
d="M1247 1970q811 -152 811 -464v-58q0 -356 -260 -666q695 -170 695 -637q0 -811 -1159 -811q-724 235 -724 551q-58 0 -58 115l87 290v87h87v-29l-29 -58q152 0 232 -203q280 -87 492 -87h116q261 46 261 232q0 216 -638 348q-231 0 -231 173q-29 102 -29 290h116
q347 0 347 290q0 43 -116 86q-486 -57 -550 -57q-87 80 -87 434q365 174 637 174zM668 1651q0 -203 58 -203q492 58 550 58q87 -29 261 -202v-203q0 -58 -58 -58q0 58 -58 58q-152 -145 -405 -145v-29l29 -58q-58 -9 -58 -58v-115l347 -58v29l-29 57h29q56 -28 87 -28
q521 324 521 579q-87 0 -87 58q116 0 116 58q0 288 -347 405q0 -29 -29 -29v29l-58 -29h-58l29 58q-87 0 -87 29l-58 -29q-145 0 -145 58q-515 -96 -550 -232zM1682 1709h29q58 -9 58 -58v-29h-58q0 31 -29 87zM176 1680l-29 -289v-58h58v-87h-58q-68 0 -87 202
q70 232 116 232zM1450 696q0 -107 348 -232q0 -126 376 -232v-58h-29q-50 0 -290 116l29 -58v-174q66 0 261 -144h58q58 201 58 347q0 344 -521 435q-131 0 -174 28q-51 -28 -116 -28zM1827 464q202 -40 202 -116v-29q-145 87 -202 87v58zM668 0q211 -313 492 -434v29
l-289 290h29q208 -128 405 -319h87v29q0 58 -87 58v58h29q188 -145 290 -145h58q58 0 58 58q-85 0 -348 261q-159 29 -232 29h-29v-29q58 0 174 -145v-29h-29q-484 374 -492 463q-47 0 -116 -174zM1827 58l-58 -115q231 -137 231 -174q134 38 145 116q-104 0 -318 173z
M1479 -144l290 -203h29l144 29v29q-128 203 -289 203h-116q-58 -9 -58 -58z" />
    <glyph glyph-name="four" unicode="4" horiz-adv-x="1993" 
d="M900 2230q296 -29 463 -29h174q58 -9 58 -58q-29 0 -29 -29q-435 29 -637 29h-145v58q65 0 116 29zM697 2086q58 -10 58 -58v-29q-66 0 -405 -666q-29 -205 -29 -348l-58 29v-29q0 -86 318 -492q0 -18 87 -58l261 58l58 -29q50 29 116 29q0 -29 28 -29l-28 -116
q0 -50 57 -174l-29 -58q29 -56 29 -87q0 -30 -29 -86q48 -295 116 -435q26 0 232 29v-29l58 29q29 0 29 -29l58 29h174v-87q-307 -87 -377 -87l-58 29l-174 -29h-29q-231 66 -231 377q0 550 -116 550q-48 29 -145 29h-521q-68 0 -87 434q261 899 637 1333zM1566 2028h29
q58 -9 58 -58h-29l29 -58q0 -29 -29 -29l29 -58q29 -534 29 -898q105 0 231 -1042v-203h-58q-72 0 -115 782l-145 174v289l-29 174q0 29 29 29l-29 145v753zM987 1738h58q101 -64 318 -608l-58 -29h-58q0 139 -260 608v29zM842 1651h87q0 -84 -174 -608h434v-58h-492
q-58 0 -58 58q203 530 203 608zM205 840v-202q116 -145 116 -203h202v58q-246 347 -289 347h-29z" />
    <glyph glyph-name="five" unicode="5" horiz-adv-x="2312" 
d="M1798 2201q57 -206 57 -666h-28q-391 29 -580 29v-173q10 -45 580 -232q405 -483 405 -666v-87q-58 -801 -290 -869q0 -224 -1100 -260q-703 0 -753 781l-29 116q307 116 405 116q0 -93 435 -261q637 149 637 522q-108 318 -637 318q-521 0 -521 174q-87 172 -87 608v203
l318 318l203 -29h318q168 0 464 -29q145 87 203 87zM1566 2028q-296 29 -463 29h-406q-58 0 -87 -203q29 -439 29 -811q9 -58 58 -58h87q833 0 898 -434v-87q0 -225 -261 -406q-107 -58 -463 -144q-83 0 -579 202v-144q115 -129 115 -145h-58v-58q246 -348 464 -348v58
q145 -12 145 -87h144l493 203q191 151 318 377v28l-29 58q69 0 116 203q0 29 -29 29l29 145q-36 282 -318 579l-406 203q-289 0 -289 405q57 94 57 145h29q111 -116 232 -116l58 29q205 -58 319 -58v406q0 58 -58 58z" />
    <glyph glyph-name="six" unicode="6" horiz-adv-x="2080" 
d="M1131 1912l29 -58q-21 0 -173 -29v-29q297 0 550 -116l29 -174v-318q0 -44 -116 -87l-116 29q-353 0 -405 -319h29q-58 -95 -58 -173l58 -29q152 87 347 87q474 0 695 -551v-145q0 -398 -434 -723q-156 -87 -435 -87q-764 0 -926 521q-76 0 -145 550q0 1030 521 1419
q55 94 550 232zM610 1448l-58 29q-260 -262 -260 -608v-29h-58v-116q0 -78 58 -173h-58q29 -261 116 -435l-29 -58q34 -139 115 -231q-28 -51 -28 -116q184 -174 347 -174l-87 116h29q56 -29 87 -29v29l-29 58h29q128 -87 203 -87v-87h-58v-29l202 -29q522 83 522 261
q116 0 116 232q-81 198 -203 260q29 56 29 87q187 -174 203 -174h29v29q0 203 -232 319q-56 -29 -87 -29q-19 116 -145 145l-58 -29l-58 29q-289 -77 -289 -290h-87l-87 58q0 31 29 87l-58 434q72 0 174 232q307 87 376 87h145v347q0 106 -492 145q-348 -115 -348 -261z
M1160 174q81 0 232 -116h29q-29 -434 -290 -434q-347 0 -347 376q96 0 116 145q156 29 260 29zM929 -28v-203q45 0 116 -58h144q46 0 116 116v173q-47 116 -202 116h-29q-39 0 -145 -144z" />
    <glyph glyph-name="seven" unicode="7" 
d="M1016 1825h58q287 0 695 -29l58 29q196 0 231 -463q-608 -1471 -608 -2085h-145q-325 -87 -492 -87q-232 173 -232 202l58 87q-87 0 -87 87q174 667 261 1216h29l58 -29q0 79 116 377h-58q-612 -58 -724 -58h-174v376l29 348h58q0 -203 -29 -637q31 0 87 -29
q579 40 579 116l145 -29h29q65 0 116 29q50 -29 115 -29v-116q-139 0 -231 -405q-29 0 -116 -348l29 -58l-87 -174v-87q-51 0 -58 -144q319 -293 319 -319q-29 0 -29 -29l58 -29v58h29l57 -29q73 80 116 319v116q66 0 145 347q0 33 -203 203v29l232 -145q0 58 29 58l-29 58
v29q87 106 87 202v116q74 0 87 145q0 27 -116 174h29q51 -29 116 -29q0 65 202 463v116h-202q-214 0 -319 29l-1071 -58v58q383 58 753 58zM668 -289v-116q0 -87 261 -145h87v58q-67 26 -319 203h-29zM755 -637q29 -56 29 -86h145v28q-73 0 -145 58h-29z" />
    <glyph glyph-name="eight" unicode="8" horiz-adv-x="1819" 
d="M929 2028h260q493 -174 493 -637q0 -166 29 -203q0 -33 -319 -348q348 -350 348 -666v-116q0 -532 -666 -695q-113 -29 -232 -29h-29q-567 0 -753 580v173q0 393 348 724q-203 127 -203 464q61 301 405 637q268 116 319 116zM350 1072q21 -105 289 -232v-116
q-271 0 -318 -347q-37 0 -87 -377h29l-29 -57v-87q116 -15 116 -87h-29l-58 29v-29q116 -290 405 -290h29q23 0 87 87q94 -58 145 -58q355 0 637 348q22 318 58 318q-158 608 -406 608v29l-58 -29h-57v87q96 0 202 174q29 0 29 29l-29 203v29h29q21 -145 87 -145h29
q47 0 116 203q0 579 -637 579q-579 -186 -579 -869zM813 1564h87q58 -9 58 -58v-29q-129 0 -174 -58l29 -57v-29h-29l-58 29v-29q0 -87 116 -87t116 173h58v-115q-87 -145 -203 -145q-132 56 -145 116v58q0 157 145 231zM929 406h58q116 -47 116 -203q0 -239 -319 -347
q-94 29 -232 173v174q126 203 377 203zM697 145v-29q0 -41 87 -87h58q174 0 174 232l-145 29h-29q-39 0 -145 -145z" />
    <glyph glyph-name="nine" unicode="9" horiz-adv-x="2428" 
d="M1450 1941q555 0 724 -319v-29h-58q131 -747 174 -782q58 0 58 -87q0 -1245 -348 -1476h-173q0 86 -58 86q-29 -56 -29 -86h-348q-58 0 -58 57q156 0 232 87q29 0 29 -29q364 0 550 985v29q-116 603 -116 869v87q-104 492 -202 492v-58h-58q-34 0 -319 58
q-417 0 -782 -637q0 -29 29 -29q-20 -203 -58 -203q0 -310 695 -405q128 0 319 202h29l-29 -57q58 -10 58 -58v-522q0 -366 -464 -521q-554 0 -782 290q-87 0 -202 29q-56 -29 -87 -29v-58l87 -116h-58v-58q0 -134 289 -376l-58 -29h-144q-33 0 -203 260l29 58
q-58 188 -58 261q0 87 174 173l174 -28q95 57 173 57h29l-29 -144q0 -87 319 -174h289q367 0 464 492q-29 198 -29 319q-261 -145 -348 -145h-145q-608 154 -608 579q-29 0 -29 87q280 724 493 724q326 174 463 174zM1074 1419h260q156 0 203 -115v-174q-251 -145 -319 -145
q-173 0 -202 290h29l-29 58v29q9 57 58 57zM1103 1304v-29q0 -203 231 -203q45 0 116 116v116l-203 58h-87q-57 -9 -57 -58zM2058 -347h29q58 0 58 58v58q-43 0 -87 -116zM1884 -608l58 -29q58 0 58 58v87q-45 0 -116 -116z" />
    <glyph glyph-name="colon" unicode=":" horiz-adv-x="922" 
d="M292 1535h231q319 -214 319 -405q-135 -261 -348 -261q-289 0 -376 377v116q0 40 174 173zM263 1246q0 -261 347 -261q116 134 116 203q-75 231 -232 231q116 -209 116 -260l-58 -29l-58 29l29 58q-68 202 -115 202h-29q-48 0 -116 -173zM379 377q241 0 434 -348
q29 -50 29 -115q-92 -377 -348 -377q-311 0 -434 492l29 58v87q173 203 290 203zM234 174l29 -58q0 -58 -58 -58q134 -347 289 -347q232 0 232 289q0 29 -145 203l-58 -29h-29v58h-29q-125 0 -231 -58zM350 145q132 -173 202 -173v-58q0 -58 -58 -58l-115 87l29 57
q-58 95 -58 145z" />
    <glyph glyph-name="semicolon" unicode=";" horiz-adv-x="1095" 
d="M408 1680h57q401 -272 435 -347v-87q0 -239 -348 -319h-58q-434 45 -434 406v86q193 261 348 261zM292 1333v-87q0 -42 87 -87h57l203 29v29q0 224 -145 289h-115q-87 -29 -87 -173zM436 1072v-29q31 0 87 -29q145 37 145 87v29q-106 -58 -232 -58zM610 435h29l87 -58
q159 29 232 29l58 -87h-29l29 -58q-242 -927 -580 -927h-318q-58 0 -58 58q58 218 58 406h58v174q0 33 58 318v58h376v87zM813 290q0 -87 -58 -87h-29l-87 58h-29q-289 0 -289 -347v-87q29 0 29 -29q-87 0 -87 -87q52 -232 116 -232h144q348 651 348 811h-58z" />
    <glyph glyph-name="less" unicode="&#x3c;" horiz-adv-x="2051" 
d="M1566 1825h58q0 -112 231 -463l58 29h58v-29q-905 -840 -926 -840v-29q279 -65 753 -521q-203 -184 -203 -406h-58l-58 29q0 -145 -58 -145q-1061 575 -1361 898v58q521 485 521 521q95 0 261 232q58 0 347 289q58 0 203 174h29q58 -9 58 -58q-695 -619 -695 -666
q0 -41 -145 -87q29 -206 29 -231v-29h-29q0 56 -58 202q-56 -29 -87 -29v-28q182 -724 290 -724h29q-58 115 -116 434v58h29q151 -608 261 -608h29l-116 492q60 0 231 -579q87 0 232 -116q26 0 290 319v28q0 71 -319 174q0 139 -376 261v87q0 61 811 753h29v58
q-174 318 -232 318v29q0 29 29 29l-29 58v58zM379 609l144 -435h29v58q0 49 -87 377h-86zM234 522q116 -319 174 -319h28q-78 348 -144 348z" />
    <glyph glyph-name="equal" unicode="=" horiz-adv-x="2370" 
d="M205 1622l116 -29q186 0 376 29q919 -29 1130 -58q107 29 260 29h58q129 0 145 -637v-58q0 -98 -579 -116h-1419q0 -86 -58 -86q-96 308 -174 405q0 29 29 29q58 0 58 29q0 194 58 463zM321 1448q0 -115 -58 -115v-29q318 -289 318 -319h29v29l-87 116h29
q174 -101 174 -145l-29 -58l58 29q87 -29 87 -58q53 0 232 58q50 -29 115 -29h29q29 0 29 29q106 -58 232 -58h116v29l-29 58h29l87 -58l289 29v-29q51 29 116 29v87q-50 0 -145 87q-58 -9 -58 -58q-164 78 -434 347q-51 29 -116 29h-174v-57l-86 57h-232v-29q0 -86 145 -86
v-116q-95 58 -174 58q0 -29 -29 -29l29 -58v-29h-116q0 72 -116 203h29l87 -58q51 29 116 29q-29 115 -174 115h-87l29 -57v-29l-145 86h-115zM1537 1448v-57q32 0 290 -232h28l-28 145v29h28q161 -203 261 -203v289l-203 29h-376zM1160 1391q42 0 87 -87h-29q-58 0 -58 58
v29zM263 1188v-116q94 -123 260 -174l29 58q-245 232 -289 232zM292 232h29q58 0 58 -87q552 -29 752 -29q367 0 724 58q174 -68 174 -116v-86q0 -348 -58 -348l29 -58v-145q-440 -116 -492 -116q-417 58 -1129 58h-58q-116 164 -116 232v116q0 29 29 29l-87 376
q29 56 29 87h58l58 -29v58zM263 87v-144h29v144h-29zM379 29v-173q0 -105 115 -232h-29l-57 29v-116q9 -58 57 -58h580l58 29v-58h144v58q95 -58 174 -58h203q97 0 203 87l-58 116q144 0 144 145v174q0 57 -58 57q-752 -29 -1013 -29q-31 0 -87 -28q-95 57 -174 57h-202z
M1624 -202q41 0 87 -87v-29q-42 0 -87 87v29z" />
    <glyph glyph-name="greater" unicode="&#x3e;" horiz-adv-x="1935" 
d="M639 1825h58q298 -347 1130 -1129l28 -58v-29q-217 -380 -1158 -1159l29 -58v-58h-87q-28 0 -579 638q38 40 376 144q0 65 348 435q-460 508 -579 608q0 29 174 260l-29 203h58v-116h28l232 232q-29 56 -29 87zM465 1391q79 -377 145 -377v145h29q0 -183 174 -377v58h58
q41 -260 87 -260q145 0 145 -116l-29 -58l29 -290h-58v203h-29q0 -58 -290 -174q-4 -50 -318 -231q0 -116 144 -203q8 -145 87 -145q93 151 406 319q463 408 521 579q64 0 174 174q-254 343 -522 492q0 72 -434 463q-58 0 -58 58h-29q-51 0 -145 -203q-87 0 -87 -57z
M379 1333v-87q0 -42 86 -87v29q-37 145 -86 145zM1363 522v-145q-58 0 -58 58v29q9 58 58 58z" />
    <glyph glyph-name="question" unicode="?" horiz-adv-x="1761" 
d="M813 1709h29q753 -118 753 -405q39 0 87 -290q0 -411 -753 -753q-37 -301 -116 -376l-290 29h-231q-58 0 -58 58v260q0 492 231 492q232 0 261 232q0 42 -87 87h-58l29 -58v-29h-58v58h-58q0 -87 -289 -87q-145 193 -145 319v145q0 173 232 173q0 87 521 145zM176 1391
q116 -129 116 -145q-29 -56 -29 -87h58v58l260 -58l58 29q288 -76 377 -174q0 -271 -203 -347q-243 -203 -492 -203q29 -56 29 -87l-29 -145l29 -174q-29 0 -29 -29l58 -29h57l-28 58q0 49 173 87q95 -58 174 -58l29 145v87q229 174 290 174q57 0 57 87l58 -29q47 0 145 145
q174 0 174 289q-145 637 -608 637q-316 0 -492 -145q-178 -86 -232 -86zM1421 1419v-28q66 0 87 -145h29v29q-56 132 -116 144zM1074 1333h29q45 0 115 -116v-29q-39 0 -144 145zM321 1072l-29 -58h29q56 29 87 29v29h-87zM436 -173q280 0 377 -261q38 0 87 -174
q-87 -318 -406 -318h-29q-263 0 -376 405q98 348 347 348zM408 -318v-87l-58 29h-29q-58 -9 -58 -58l289 -174l-29 58v29l58 -29h29q58 0 58 58v29q-64 145 -260 145zM292 -492v-29q129 -174 231 -174q0 66 -231 203z" />
    <glyph glyph-name="at" unicode="@" 
d="M900 1999h87q753 -193 753 -406q318 -347 318 -492v-116q0 -284 -434 -521h-116l-174 29q-216 -145 -318 -145h-58q-402 0 -493 550q95 550 435 550h29q492 -132 492 -289l-29 -58q58 -188 58 -261l-29 -202q31 0 87 -29q347 233 347 579q-333 579 -724 579q0 29 -57 29
q-731 0 -898 -898l29 -58q0 -29 -29 -29q170 -868 550 -868q210 -29 261 -58q244 26 550 376h58v-29q0 -219 -464 -463h-347q-521 0 -724 955v58q0 1217 840 1217zM321 1564q337 295 666 319v29h-87q-399 0 -579 -348zM900 1304q-203 -116 -203 -551q85 -202 261 -202
l260 87q0 27 -58 231q29 257 29 319q-120 116 -289 116z" />
    <glyph glyph-name="A" unicode="A" horiz-adv-x="2167" 
d="M958 1912q710 0 926 -1216q110 -317 203 -1362q-29 0 -29 -29l-145 29l-173 -57q-152 0 -232 144v87l174 29q206 -29 231 -29q0 29 29 29q-277 2288 -897 2288h-145q-390 0 -724 -608q-29 -112 -29 -232q0 -1249 87 -1477l58 29h29q0 -87 202 -87l58 29q0 -29 29 -29v29
q-58 302 -87 377q87 405 348 405q104 0 260 29q108 -29 261 -29q145 -569 145 -695l-58 -29q-58 0 -145 550q-110 87 -145 87q-405 -38 -492 -87q39 -357 87 -521q0 -318 -232 -318q-188 -58 -260 -58q0 65 -203 115v29l58 87q-87 631 -87 1506q0 608 753 956zM813 1448
q521 0 521 -810q-127 -87 -203 -87q-295 29 -463 29v58q9 58 58 58h434q0 86 29 86q-139 551 -405 551q-203 -107 -203 -377q29 -300 29 -347h-29q-58 0 -87 260h29l-29 58q123 521 319 521z" />
    <glyph glyph-name="B" unicode="B" horiz-adv-x="1849" 
d="M813 1535q425 0 666 -405q29 -48 29 -145v-58q0 -177 -145 -376q406 -138 406 -493v-115q0 -236 -261 -580q-295 -289 -550 -289h-203q-200 0 -434 87q0 -58 -58 -58h-29q-80 441 -145 1679q-29 0 -29 58q145 349 145 579v29l116 -29q153 87 492 116zM292 1188
q0 -319 144 -464v-28l-115 57q42 -753 87 -753q0 -28 -29 -28q57 -609 144 -609v-29l58 29l58 -29l58 29l116 -58q51 29 116 29q56 -29 87 -29v58l58 -29q292 0 579 493v58h-58v29h87v29l-29 202h29q-152 319 -348 319q-355 -29 -405 -87q-73 0 -87 116q0 104 347 174
q175 174 232 376q-41 204 -405 376q-157 29 -261 29q-463 0 -463 -260zM697 1188q290 -36 290 -116v-232q-113 -173 -203 -173l-145 29v28q0 121 -29 319q37 145 87 145zM755 1072v-232l29 -58q132 56 145 116v87q0 42 -87 87h-87zM929 145q135 0 347 -231v-58
q0 -290 -289 -290l-203 -29l-29 58q0 29 29 29q0 34 -145 261q45 0 116 58q-58 95 -58 173q159 29 232 29zM842 -57l29 -261q232 77 232 145q0 157 -145 231h-29q-73 0 -87 -115zM610 -434h29q42 0 87 -87h-29q-42 0 -87 87z" />
    <glyph glyph-name="C" unicode="C" horiz-adv-x="1819" 
d="M1074 1593q376 0 376 -376q29 -158 29 -319h-87q0 116 -232 116q-347 -174 -347 -405q44 -522 318 -522q199 29 319 29h174q87 0 116 -434q-87 -261 -464 -261q-157 29 -318 29l-58 -29q-500 0 -782 551q0 38 -58 318q0 679 608 1245q157 58 406 58zM205 377v-58
q0 -231 318 -492q0 29 29 29q170 -261 406 -261h318q246 0 348 174v231q-349 -57 -550 -57q-316 83 -435 376q0 567 290 753l202 58q160 -29 232 -29v29q0 347 -203 347q-72 0 -231 29q-360 0 -695 -810q-29 -199 -29 -319z" />
    <glyph glyph-name="D" unicode="D" horiz-adv-x="1848" 
d="M523 1564h435q483 0 811 -955q0 -763 -898 -985q-253 -29 -435 -29h-28q-116 47 -116 203v202q0 360 -145 1362l-58 -29h-29v86q0 126 463 145zM552 1448h-231q123 -1563 231 -1563h87l-29 -58l58 29l87 -58h174l87 58l58 -29q186 75 202 145l-29 57q230 0 319 551
q-58 405 -174 405q0 230 -203 348q0 144 -347 144l-116 -29q-29 0 -29 29zM813 1130q405 -134 405 -521q0 -146 -289 -290h-87q-128 0 -174 550q0 50 145 261zM871 1014q0 -87 -58 -87q67 -463 116 -463q202 85 202 260q0 191 -260 290zM842 -28q132 -57 145 -116h-58
q-42 0 -87 87v29z" />
    <glyph glyph-name="E" unicode="E" horiz-adv-x="1704" 
d="M1334 1709q116 -163 116 -434v-116q0 -174 -666 -174v-87h145q104 0 260 29l58 -29q56 29 87 29l87 -116v-405q0 -29 -203 -145h-260l-145 29l-29 -145q29 -152 29 -173h261q29 0 29 -29l57 29h377v-29q16 -319 58 -319h29q-58 -319 -116 -319h-29q-29 0 -29 29
q0 -47 -1274 -86l-29 57q29 0 29 29l58 -29h58q-58 71 -58 116h-29v-58q-36 0 -145 174q0 171 29 608l-29 261l29 116q0 31 -29 87q29 246 29 405v319q104 231 290 231v29h-58v29zM234 1448v-231q0 -145 -58 -145l58 -927q-29 -48 -29 -145l29 -57l-29 -58l58 -145h-29
l116 -174q29 0 29 29q30 0 86 -29l464 29l202 -29v29l58 -29h116l145 29v261h-145q-87 0 -87 -29l-144 29h-377l-29 144q0 522 145 522h29l116 -58l58 29l115 -29l116 87l-29 58v231h-29q-396 -58 -463 -116h-58v116q0 319 87 319h174q318 0 318 87v29l-29 347
q-546 0 -984 -174zM1305 -550v-87h29q56 29 87 29q0 58 -58 58h-58zM668 -608v-58h116v58h-116z" />
    <glyph glyph-name="F" unicode="F" horiz-adv-x="1762" 
d="M1537 1680v-58q0 -125 58 -637l-87 -58h-58q-203 0 -637 -29l29 -145v-86q630 93 695 144q0 29 29 29h29q29 -405 87 -492q-29 -51 -29 -116q-615 -58 -753 -116l29 -58v-260q0 -73 58 -261q0 -72 -290 -145q-219 29 -289 58q-57 -29 -87 -29l-87 116v29q0 542 -174 1882
q137 203 174 203q105 -58 260 -58q589 0 1043 87zM697 1477h-203l-202 29v-260l29 -174q0 -29 -29 -29l29 -145v-58q0 -65 -29 -116q29 -50 29 -115h-29q58 -217 58 -637q29 0 144 -435l145 -29h58l203 29q-58 201 -58 348h29q-29 65 -58 376q31 0 87 29q29 0 29 -29l608 87
v203l-29 145h-87q-80 0 -434 -116h-174q-58 0 -58 58v115l-29 290l58 29q87 -29 87 -58q125 58 463 58h145l-29 463h-145v-58q-116 23 -116 58q-231 -58 -492 -58z" />
    <glyph glyph-name="G" unicode="G" horiz-adv-x="2312" 
d="M1566 1796h203l144 -29v-232q0 -152 29 -492q-87 0 -202 -29q-29 56 -29 87h-203q-300 0 -724 -521q-87 -111 -87 -261v-116q173 -463 550 -463q464 70 464 289q-108 58 -435 87q0 -58 -58 -58q0 67 -58 435q42 260 116 260h203q188 0 579 29q156 -155 174 -434v-405
q0 -203 -58 -203l29 -58q-92 -221 -376 -434v-29l-58 29h-29l29 -58q-395 -29 -493 -29q-1013 178 -1013 376q29 0 29 29q-135 0 -232 348q29 453 29 666q28 0 232 492q527 637 868 637q307 87 377 87zM205 174q44 -666 405 -666q0 -108 348 -145l58 29q115 -48 463 -115h29
v57l58 -29q463 100 463 464v58h58l-29 58l58 87q0 86 -29 86l29 145v232l-58 261h-58q-145 -67 -145 -87q-130 58 -376 58l-203 -29v-203q0 -232 174 -232t174 -29l58 29l116 -87q0 -521 -638 -521q0 -29 -57 -29q0 74 -261 116q-162 0 -377 463q43 319 87 319l-29 58v29
q46 0 319 434q373 261 492 261q18 0 377 -29q29 20 58 492h-87q-901 0 -1332 -811q-145 -182 -145 -724z" />
    <glyph glyph-name="H" unicode="H" 
d="M1566 1738l116 -58l-29 -58q260 -1186 376 -2027q29 0 29 -29v-29q-167 -58 -695 -87q-153 869 -203 869h-115l-203 -29q87 -506 87 -782q-324 -165 -666 -174q-116 0 -145 319l29 58l-87 869l29 173v609q0 231 174 231h116l115 -29q87 29 87 58q145 0 145 -550
q29 0 29 -116l203 29h58l-58 550h58v29h-58v87h116q306 87 492 87zM1160 1564q0 -132 87 -637q-217 -116 -550 -116l-145 637q-156 29 -260 29l-116 -29v-868q58 -1072 145 -1072q45 0 463 87q0 535 -116 724v58q416 29 637 87q174 0 174 -695q29 0 58 -145q29 0 29 29
l145 -29q21 0 173 29q-144 869 -144 1071v87l-87 116l29 58q-116 561 -116 695q-277 -116 -406 -116z" />
    <glyph glyph-name="I" unicode="I" horiz-adv-x="1154" 
d="M639 1970q261 -147 261 -377q0 -260 -319 -260h-116q-202 110 -202 318q0 319 376 319zM379 1622v-58l115 -87q48 -29 145 -29h29q116 39 116 261q0 39 -145 145q-231 0 -260 -232zM263 1246l145 -29q132 0 666 29v-58h-58q0 -29 29 -29q0 -58 -29 -58l29 -348v-144
q0 -304 -29 -637q29 -126 29 -435h-29l29 -58v-116q0 -29 -116 -86l-145 28h-116q-159 0 -405 -28q-103 0 -145 347h29l-29 58q-58 1169 -58 1303q0 232 203 261zM263 1159q0 -87 -29 -87l29 -58v-261q0 -119 -29 -231q87 -514 87 -1101v-29h521v116q0 87 29 87l-29 145v289
q0 66 -29 116q58 131 58 377v318q0 29 29 29l-29 58q0 29 29 29q-29 115 -29 203q-197 0 -521 -87q0 42 -87 87z" />
    <glyph glyph-name="J" unicode="J" horiz-adv-x="1936" 
d="M1595 1680q199 0 232 -840q0 -197 28 -347q-28 -150 -28 -348v-29q0 -29 -29 -29q0 -29 29 -29q0 -810 -464 -810q0 -29 -174 -29h-58q-746 0 -955 376q-87 313 -116 956q58 202 232 202h405v-29l-58 -86q68 -898 348 -898h87q144 80 144 260q-29 681 -144 1622
q30 0 86 29q51 -29 116 -29v-29h-58v-29l29 -58q-58 -9 -58 -58l145 -1158h-29l29 -58v-203l29 -202q-145 0 -145 -87q56 -29 87 -29q0 -58 -58 -58l-58 29l-144 -58q-464 115 -464 869q-29 48 -29 145q-260 0 -260 -87q-29 -157 -29 -261q105 -898 376 -898q0 -39 579 -87
q493 0 493 1072q-116 1245 -145 1245h-29q9 58 58 58z" />
    <glyph glyph-name="K" unicode="K" horiz-adv-x="2196" 
d="M1305 1622q145 -29 145 -58q29 0 29 29q376 -66 376 -116q-173 -594 -463 -1129v-174q145 0 145 -174q338 -348 492 -666q42 0 87 -86v-58q-22 0 -174 -29q-637 51 -637 144q-376 387 -376 493h-29v-116q0 -75 58 -290q-93 -231 -464 -231h-173q0 87 -116 173l29 58
q-145 774 -174 1970l87 202l203 -29h318q0 -87 -29 -87l87 -608q489 771 579 782zM784 551h-29q-107 121 -174 897h-318l-58 -29q58 -1284 203 -1969q-29 -56 -29 -87q26 0 463 58q-29 341 -29 493v86q9 58 58 58h29q0 -101 434 -637l-29 -58l666 -86q-649 888 -782 984v29
q145 0 145 261l348 868q-174 29 -174 58q-261 -37 -261 -231q-92 0 -260 -261q-116 -289 -174 -289q-29 0 -29 -145z" />
    <glyph glyph-name="L" unicode="L" horiz-adv-x="1935" 
d="M118 1622l87 -58h29q0 58 29 58q188 -58 260 -58h348q58 -9 58 -58v-58l-58 29h-58v-29q58 -1274 116 -1274q29 0 29 29l145 -29q389 58 492 58h87l87 58h86v-29q0 -79 -57 -174q57 -95 57 -173v-145q0 -348 -202 -348q-731 -58 -1361 -58q-95 0 -145 348q-29 0 -29 29
l29 58q-87 520 -87 1332v434q9 58 58 58zM292 1448q0 -29 29 -29l-58 -695q0 -28 29 -28l-29 -203v-290q0 -666 145 -666q115 0 115 -29q29 0 29 29l116 -29q156 0 1043 116v348q0 28 29 28l-29 58l29 58l-58 29q-541 -87 -637 -87h-174q-42 0 -87 87v203q0 233 -29 550
q0 29 29 29l-58 550q-289 -29 -434 -29zM929 435h29l29 -116h-58v116z" />
    <glyph glyph-name="M" unicode="M" horiz-adv-x="2312" 
d="M2029 1680h29q0 -45 58 -116l116 -1853l-29 -58q29 -51 29 -116v-203h-87q-152 0 -492 -29l-116 174q-29 246 -29 406h-58q0 -116 -87 -116q-95 58 -174 58h-86q0 104 -174 231h-29q29 -148 58 -637h-58q-29 0 -87 116l29 58v87h-29v-116h-58v290q0 145 -29 434
q89 29 174 29q0 -96 347 -434q203 0 290 405q116 0 116 116h29q58 -9 58 -58l-58 -116q29 -579 58 -782h318l58 29q-75 0 -116 1361q-29 0 -29 29l29 58q-29 246 -29 406v173l-144 29q0 -21 -116 -231q29 0 29 -29q-72 0 -319 -522h-116v29q0 110 406 753l116 116h57v-58h87
q0 87 58 87zM234 1535h58l955 -782q29 -50 29 -115v-29h-58q-213 242 -753 637l-231 260v29zM118 1477h87q87 -462 116 -1129q29 0 29 -29t-29 -29q112 -811 231 -811h-29l-115 58q40 -145 202 -145v29q232 -46 232 -116l-261 -57q-376 0 -376 202q0 125 -145 1998z" />
    <glyph glyph-name="N" unicode="N" horiz-adv-x="2196" 
d="M1334 1535l203 -29h58q65 0 116 29q56 -29 87 -29v-58q-156 0 -261 -57q-116 57 -203 57l-29 -57q116 0 116 -493q58 -166 145 -753q58 0 58 -116h-116q-344 431 -637 695q-502 609 -637 609v-29q0 -56 116 -840h-29q94 -774 144 -840q-29 -56 -29 -87h406l58 29
q-71 616 -145 666v29h29q319 -87 319 -232q298 -492 521 -492q119 0 231 -29l174 58q-58 329 -145 1072h29l-29 58v550l-29 202l58 29q29 -56 29 -86q0 -31 -29 -87l203 -1825q-279 -58 -579 -87l-116 58l-58 -29q-172 0 -376 464h-29v-29q58 -413 58 -464l-87 -58
q-58 0 -58 58l-58 -29h-145q-137 0 -203 87l-57 -29q-261 114 -261 377q0 169 -87 1245q20 434 116 434q261 -182 579 -463q506 -550 550 -550v58q-58 95 -58 174v173q0 290 -58 579q145 38 145 87zM697 696h29q39 0 145 -145h-29q-39 0 -145 145zM1074 319h57l203 -174
q0 -58 319 -347v-87h-29q-374 345 -550 608z" />
    <glyph glyph-name="O" unicode="O" horiz-adv-x="2312" 
d="M1103 1448h202q522 -122 522 -231h-29q-378 145 -464 145h-116q-642 0 -955 -1014v-145l29 -203h-29q143 -579 579 -579q150 -29 347 -29h87q811 177 811 782q58 0 58 406q0 153 -318 608v29h28q377 -368 377 -811q0 -518 -434 -927q-351 -174 -609 -174h-231
q-665 0 -898 695v87q0 817 869 1332zM1131 696q265 0 435 -232q0 -521 -435 -521q-347 77 -347 202v116q119 435 347 435zM958 377v-29q0 -168 202 -261h29q261 38 261 261v29q0 71 -290 174q-131 -48 -202 -174z" />
    <glyph glyph-name="P" unicode="P" horiz-adv-x="1791" 
d="M639 1419q29 0 29 -28l203 28q530 0 724 -318q87 -190 116 -377q0 -435 -695 -550q0 29 -29 29v-29h29l-29 -58q0 -146 87 -463v-58q-273 -145 -782 -145h-29q-58 270 -203 1767q43 0 174 145h58l-29 -145v-145l29 -145h-29l29 -58q29 -1013 116 -1013q-29 -56 -29 -87
q43 -116 86 -116h87q146 0 435 29l-116 608q29 56 29 87h174l86 58l174 -29q183 78 290 261v86q0 419 -464 551h-521l-289 -29l-29 58v29zM1218 1188q71 0 261 -232v-29h-29q-37 0 -232 232v29z" />
    <glyph glyph-name="Q" unicode="Q" horiz-adv-x="2515" 
d="M1421 1622q553 0 666 -869q-29 -252 -29 -434v-58l-58 -87q435 -176 435 -202q-290 -439 -290 -551h-87q-29 0 -29 29l-58 -29q-138 0 -318 174q-285 -232 -608 -232q-956 74 -956 840q0 131 -29 174q0 723 608 1100q500 145 753 145zM176 464q56 -29 87 -29l-29 -145
q0 -172 174 -290l-29 -57q0 -116 434 -232h29v29q-87 0 -87 87h29q112 -87 174 -87q0 29 29 29q0 -76 144 -116l145 29v-29q189 87 348 87l-87 116v58h58q402 -257 492 -348h29q0 125 203 348v58q-377 0 -377 318q0 145 29 434h-29q-56 -28 -87 -28v57q116 0 116 58
q-156 695 -492 695h-116q-568 0 -955 -405q-110 0 -232 -637zM1103 985q318 -70 318 -203h-87v58h-58v-58q-206 87 -231 87q-301 0 -319 -347v-87q174 -203 348 -203q318 126 318 290v116h58q0 -58 29 -58q0 -414 -405 -580q-340 0 -464 493q82 492 493 492zM523 -57h29
q145 -38 145 -87h-58q-116 43 -116 87z" />
    <glyph glyph-name="R" unicode="R" horiz-adv-x="1964" 
d="M842 1593q782 -41 782 -260q116 -130 116 -261q0 -568 -493 -666v-87q83 0 637 -753q-68 -116 -695 -116h-144q0 193 -203 377v-29l87 -435l-58 -29l-87 58h-58l-87 -58l-145 29q0 -58 -86 -58q-319 0 -319 319v232q0 304 -29 926h29q0 29 -29 29l29 290q0 36 -29 290
q145 39 145 115h29q530 87 608 87zM321 1391v-87q0 -87 29 -87l-29 -145q0 -653 58 -811q-29 -51 -29 -116l58 -87q-29 -56 -29 -86q0 -29 29 -29l-29 -145v-58q0 -130 376 -290h58q-87 531 -87 608q29 0 29 29q290 -29 290 -260q205 -290 231 -290q203 0 203 87l145 -29h29
l29 116q-399 506 -608 637q-29 51 -29 116q608 77 608 608v58q-87 231 -261 318q-25 0 -579 58q-96 0 -492 -115z" />
    <glyph glyph-name="S" unicode="S" horiz-adv-x="1993" 
d="M1276 1622q319 -29 319 -116v-173q58 -281 58 -319v-58h-29q-174 0 -521 29h-87v-29q650 0 839 -492q58 0 58 -290v-87q0 -390 -753 -753q-156 -29 -260 -29h-521q-229 76 -290 261v58h58l-29 145v58q0 29 29 29l-87 173v29q116 0 116 145h87l-29 -58q38 -145 434 -145
h145q318 29 318 232q29 0 29 58q-39 120 -144 174h-348q-362 0 -434 492q0 401 666 637q246 29 376 29zM350 985v-58q0 -228 289 -376q93 46 261 87q434 -116 434 -348v-58q0 -158 -145 -232q-8 -98 -318 -173q-51 0 -145 58l-145 -29l-58 29l-58 -29q-34 29 -173 29
l-29 -145l29 -58l-29 -174q106 -87 202 -87v58l174 -87l58 29l174 -29q187 0 695 290q0 71 203 290q0 65 29 115l-29 58l29 174q-131 492 -377 492q-492 69 -492 145v58q184 58 231 58q247 -29 377 -29v29q-29 319 -87 319l29 57q0 49 -174 87q-897 -234 -897 -434
q0 -45 -58 -116zM465 956l58 -116h-29q-41 0 -86 87z" />
    <glyph glyph-name="T" unicode="T" horiz-adv-x="2196" 
d="M958 1999q347 -29 347 -58q29 0 29 29l145 -29h58q293 29 463 29l116 -666q0 -58 -58 -58h-116l-347 29l-29 -58v-145l29 -174q0 -29 -29 -29l87 -637q-29 -56 -29 -87q29 -50 29 -116h-29l116 -521q-425 -108 -811 -145q-58 0 -145 840q58 0 58 58q-80 414 -116 811
q29 51 29 116h-87v-58h-58v58l-145 -29h-347q-58 244 -58 637v58q194 87 898 145zM494 1854v29q-231 -29 -231 -87l29 -116l-29 -145q58 -95 58 -173h318l87 57h116q66 0 145 -695q-29 -50 -29 -115l58 -87l-29 -58l29 -174h-29l29 -58v-116q0 -347 115 -347l-28 -58
q28 -51 28 -116h116q207 -58 232 -58h145q-87 548 -203 1767q-29 0 -29 58q29 0 29 29q412 -58 579 -58q-35 579 -116 579q-86 0 -86 -87l-174 29q-390 0 -753 58zM350 1275v-58h29l144 29v29h-173z" />
    <glyph glyph-name="U" unicode="U" horiz-adv-x="1907" 
d="M755 1535l29 -58v-29q0 -29 -29 -29l29 -57v-58q0 -29 -29 -29l29 -58v-261q0 -470 203 -666h116q41 0 86 87v232q0 189 -86 868q60 23 318 58l58 -29q51 29 116 29q232 -736 232 -1303q0 -898 -377 -898q-48 -29 -145 -29h-174q-767 0 -984 724q-87 389 -87 638
q37 761 145 810q29 0 29 -29zM1218 1448q0 -65 -29 -115l116 -840q-21 -377 -116 -377h-173q-348 169 -348 1246h-29q-405 0 -405 -145l29 -145v-348q87 -926 260 -926v-58h-58q211 -319 609 -319v58q-145 21 -145 87v29h29q166 -116 260 -116q257 228 319 348l-29 58
q203 268 203 347q-29 418 -87 550q0 29 29 29q-85 616 -203 637h-232z" />
    <glyph glyph-name="V" unicode="V" horiz-adv-x="2515" 
d="M2174 1680v-29l58 29h29q174 -101 174 -145q-319 -509 -985 -1998v-87q-39 -58 -492 -87l-608 1506l-290 608v58q45 0 116 58h58q29 0 29 -29q188 87 463 87h87q0 -95 318 -927h29q33 4 290 782q-56 29 -87 29v29q9 58 58 58h58q65 0 116 -29q94 29 579 87zM292 1506
q173 -643 608 -1621h-29q114 -223 145 -261q-29 -56 -29 -87h29q50 29 115 29v-29q319 37 319 319v87q103 0 290 521q199 443 260 492q0 160 174 348l58 202q-405 -32 -405 -115q-116 57 -203 57q-348 -737 -348 -955h-58q-162 190 -463 1013q-29 0 -58 87z" />
    <glyph glyph-name="W" unicode="W" horiz-adv-x="3267" 
d="M610 1709h87q174 -375 319 -840h29l608 464h174l347 -580h58q0 221 347 811h29l58 -29q0 31 29 87l145 -29h348v-87q-97 0 -145 29q-493 -28 -493 -231l29 -58q-57 -71 -57 -116v-87q-33 0 -174 -347q-36 0 -116 -203v-29q87 0 87 -58h-87q-47 0 -116 174l-232 202v29h87
q-202 288 -202 435q-261 -233 -261 -261q60 -13 116 -145h-58q-87 0 -87 87h-29q-261 -228 -261 -260q0 -29 -86 -29l28 -145h-28q-56 0 -145 231q-51 0 -203 638l-145 318v29zM610 1651v-29q0 -47 -434 -203v-86q232 -810 318 -956q29 0 29 -29l-29 -58q122 -401 435 -521
q50 -29 116 -29h29q0 50 260 232v28q-45 0 -116 116q87 0 87 87h87v-87h-58v-29h87q2 40 145 116q126 -176 492 -492v-58q29 0 29 29q116 -44 116 -87l-29 -58l58 -29q116 269 116 290q-58 0 -58 58v29h29q56 -29 87 -29q99 132 550 1071q-87 0 -87 58h145l58 87
q0 16 -116 145h58l87 -58h29v58q58 -9 58 -58v-116q0 -91 -869 -1622l29 -58v-29l-203 -57q-471 247 -666 579h-58q-573 -493 -608 -493h-29q-138 0 -695 1564q-29 48 -29 145v376q467 203 550 203zM2695 1130h58q58 -9 58 -58v-58h-29q-41 0 -87 87v29zM2493 869h115
q58 -9 58 -58v-29h-29l-144 29v58zM2579 724h58v-86h-58q-57 0 -57 58zM900 -86h58q58 -9 58 -58h-58q-58 0 -58 58zM697 -144v-29l145 -174h-29l-58 29v-29q29 -51 29 -116h29q58 0 58 58l-29 58h29l58 -29l29 58v29q-86 0 -261 145z" />
    <glyph glyph-name="X" unicode="X" horiz-adv-x="2602" 
d="M668 1709q348 -358 348 -463q0 -37 231 -232h58q0 82 261 521h87q-228 -666 -464 -666q0 101 -376 493q0 125 -203 260l-376 -347q29 0 29 -29l58 29h58l405 -464q66 0 232 -260v-29h-58v-29h58q0 29 29 29v-145q-319 -453 -493 -869q56 29 87 29q140 -87 319 -87
q116 0 260 406q42 0 87 87q-58 0 -58 57q116 116 116 203h87q0 -106 521 -666v-29h87q0 67 174 87q0 42 116 116q-237 352 -637 782q0 22 -29 174q148 14 405 637q-194 0 -405 202v29q600 -216 608 -260v-29q-183 0 -261 -319q-98 -45 -174 -376q508 -601 667 -869v-29
q-4 -41 -319 -203l29 -58q-123 0 -319 -58q0 38 -521 522l-289 -551q-73 0 -145 -57q-80 0 -579 86v87q0 146 202 493q0 129 261 492q-753 666 -753 956q-29 0 -29 29q126 0 550 318h58z" />
    <glyph glyph-name="Y" unicode="Y" horiz-adv-x="2370" 
d="M494 1651v-29l58 29h29q29 0 261 -463q289 -384 347 -521q193 250 493 810v29h-87v29q0 58 87 58q356 0 608 -202q-29 0 -463 -753q-304 -377 -377 -377q58 -297 116 -1013q-723 -58 -753 -58l-87 115v203q0 25 58 579q0 243 -492 898q-232 360 -232 492zM321 1419
q39 -38 173 -376q37 0 232 -376q193 -148 290 -898q0 -308 202 -377l87 -58h145l-29 58v290q0 29 29 29q-58 146 -58 521v58q591 676 753 1158h-29q-80 0 -347 87q0 -202 -522 -984h-116q-57 0 -57 87v86q-44 0 -261 406q-92 75 -261 463q-231 -100 -231 -174z" />
    <glyph glyph-name="Z" unicode="Z" horiz-adv-x="2428" 
d="M147 1535l145 -29h116q197 0 347 -29q533 58 753 58l203 -29l173 29l58 -87q-256 -303 -521 -955q-290 -521 -290 -608v-29l145 -29h29q87 0 87 29l145 -29h232q152 0 492 29q87 -207 87 -464q0 -39 -87 -289l-145 29h-550q-364 0 -898 -29q-87 29 -87 58l-145 -29
q-86 0 -202 58q-56 -29 -87 -29l-58 87q0 194 492 1534h-29l-405 -29l-29 58v261q0 162 -58 434q87 0 87 29zM755 1362q-51 29 -116 29l-116 -29q-50 29 -115 29q-57 -29 -87 -29q-51 29 -116 29v-290q0 -214 87 -232h144v58h87q27 0 232 58q174 -58 174 -203h-29l-116 87
h-58l29 -58q-232 -401 -347 -955q-87 -135 -145 -464q-29 0 -29 -29q0 -41 87 -86h318q65 0 116 28q51 -28 116 -28v57l145 -57l173 28h29l58 -28l29 57q-58 0 -58 58h58l-29 58h29q150 -145 261 -145h29q0 31 29 87q87 0 87 -87q120 0 318 29l58 -29q56 29 87 29v319
q0 66 -434 87v-29l-58 29h-116v-58l-203 29l-87 -58l-116 29l-57 -29q-51 29 -116 29q-56 -29 -87 -29q-29 16 -29 203q174 0 174 260q-42 0 -87 87v29l116 -87q0 131 144 290v87q42 0 87 87l-29 58q106 0 261 347v87q174 165 174 318h-290q-29 0 -29 -28l-58 28h-174
l-202 -28v28zM987 -376h29l87 -58v58l57 -29l-29 -58v-29q87 0 87 -87h-29q-42 0 -202 203z" />
    <glyph glyph-name="bracketleft" unicode="[" horiz-adv-x="1559" 
d="M465 1999l145 -29h290q29 0 29 -29l58 29h29q326 -116 463 -116q-58 -407 -58 -550l-203 -29h-376v-956h608v-58l-58 -87q0 -170 87 -637l-58 -29q-71 0 -116 724h-260q-165 -29 -290 -29l-29 174v58q0 186 29 376l-29 116q29 159 29 232q-29 159 -29 232
q289 -29 434 -29h116q67 0 116 405q-270 87 -492 87h-290q-29 0 -29 -29q-56 29 -87 29l29 58q-289 0 -289 -290q0 -29 29 -29l-29 -145v-1100q0 -104 -29 -261l29 -58q-29 -56 -29 -86q22 -319 58 -319q29 0 29 -29v-87l58 -29v58q154 -58 318 -58l29 58l319 -58
q48 29 144 29h29v-29q0 -95 -376 -116h-232q-463 18 -463 232q-58 0 -58 58v58h58q-29 206 -29 232q21 405 58 405l-29 58q0 29 29 29q0 29 -29 29q23 1448 116 1448q231 69 231 87z" />
    <glyph glyph-name="backslash" unicode="\" horiz-adv-x="1761" 
d="M639 1854h29q133 -365 1014 -1911v-29q0 -59 -377 -203q0 -44 -174 -145q-472 742 -868 1622q-203 260 -203 376v29q354 123 579 261zM234 1506q0 -157 231 -463q0 29 29 29q9 -58 58 -58h29q0 56 116 348h58q0 -37 -174 -493q29 -50 29 -116v-86q112 0 145 -232h87
l-29 -58v-29q0 -45 116 -116q29 56 29 87h58l-29 -145v-58q94 -96 173 -289l58 -29q223 145 348 145q-116 181 -116 231h-29q-22 0 -232 -318h-29q0 99 203 347v116l-724 1419h-58q-347 -192 -347 -232zM494 1333h29v-261h-29q0 145 -29 145q29 50 29 116z" />
    <glyph glyph-name="bracketright" unicode="]" horiz-adv-x="1386" 
d="M263 1796h347q0 -116 377 -116h116l28 -203v-173q0 -87 -28 -87l28 -116q0 -1087 174 -1680l-58 -29h-463q-145 0 -434 -29q-95 0 -145 811h289v29l-29 927h-231q-105 0 -174 87l29 202q0 37 -29 290q106 87 203 87zM176 1680q-29 -56 -29 -87l29 -58l-29 -58
q29 -156 29 -260h318q58 -9 58 -58q0 -164 58 -956q-56 -132 -116 -145l-173 29v-173q58 -281 58 -319v-116q380 0 637 58q50 -29 115 -29h58q-144 492 -144 753q0 29 29 29l-29 145v347q0 66 -29 116q29 51 29 116v116l-29 174q29 48 29 144l-29 145z" />
    <glyph glyph-name="asciicircum" unicode="^" horiz-adv-x="13519" 
d="M4636 2404q326 0 405 -463q-202 347 -377 347h-28q-287 0 -522 -521v-174q0 -393 579 -463q319 29 319 261q-48 202 -261 202q-206 -29 -231 -29v58q9 58 58 58h260q202 0 290 -289q0 -348 -464 -348q-637 0 -637 637q0 458 609 724zM6257 2404h29q112 -174 145 -174h58
q145 0 145 87h58q0 -174 -232 -174h-58q-39 0 -145 145v116zM7126 2404q869 0 869 -550v-145q-152 -463 -435 -463h-86q-113 87 -174 87v29q-145 808 -145 955h-174l-116 -87l-58 87q0 58 319 87zM3274 2375q187 0 232 -261q-29 -206 -29 -231q376 0 435 -724
q-44 -116 -87 -116q-58 0 -58 58q0 25 29 232q-57 434 -319 434h-29q-205 -290 -231 -290q-58 0 -58 87q216 310 289 550q-40 120 -145 174h-144q-174 -18 -174 -87q58 -812 174 -1042q-44 -116 -87 -116h-29q-145 789 -145 1129h-29q-116 -59 -116 -144h-58v29
q145 318 579 318zM8603 2375l29 -58v-29h-29q-377 0 -377 -202q0 -26 -29 -232q29 -56 29 -87q290 -29 435 -29h203v-87l-203 -29q-64 0 -435 58q57 -376 232 -376h203q65 0 116 29q50 -29 116 -29h115v-58l-29 -58l-202 29h-435q-116 0 -231 463h-58v87q30 0 87 29
q-38 405 -145 405v87q0 58 87 58q117 0 521 29zM7213 2317q143 -955 318 -955h87q290 214 290 405v29q0 521 -695 521zM1624 2288h145v-87l-145 -29h-87q-29 0 -29 29q-48 -29 -145 -29v-347l29 -145h-29l87 -579l-58 -29h-29q-87 317 -87 1100h-434v87q535 29 782 29z
M9356 2288h203v-87h-174q-203 0 -406 -289q0 -75 609 -145q231 -142 231 -290q0 -276 -463 -347q-203 29 -203 87v29q0 58 87 58q95 -58 174 -58q318 67 318 260q0 219 -724 261l-115 116q224 405 463 405zM581 2259q145 -87 203 -87v-86h-29q-145 86 -232 86
q-289 0 -289 -434v-58h347q377 -36 377 -289v-29q-50 -435 -319 -435q-281 0 -405 377v29h29q49 -1 289 -290h145q101 0 145 319v115q-2 40 -145 116h-376q-151 0 -174 87v58q0 521 434 521zM2203 2230q333 0 434 -1129v-87l-58 -29h-29l-57 521q-299 -87 -464 -87l-145 29
v-86q0 -73 87 -348h-58q-77 0 -144 434h-29q0 782 434 782h29zM5388 2201h87v-29q-115 -347 -115 -521v-29q36 -376 289 -376h87q219 0 261 231q-87 460 -87 551h29q97 -63 173 -580q0 -224 -434 -318q-405 61 -405 376v145q0 185 115 550zM1827 1593l86 -58h290
q72 0 261 58v87q0 330 -261 463h-58q-318 0 -318 -550zM6373 2114h29q79 0 203 -839l-58 -29q-87 173 -174 868zM11759 985h87v-29q-29 -174 -87 -174q-57 0 -57 58v87q9 58 57 58zM9790 869q56 -29 87 -29v-29l-289 -1042h-58q-58 0 -58 87l260 753v29h-29
q-50 -167 -405 -493h-58q-72 0 -87 116h-29q-45 -35 -260 -550h-29q-58 0 -58 87q231 618 318 984h29q58 -9 58 -58v-144q0 -319 87 -319q257 219 521 608zM2840 696q153 0 174 -319q-124 -261 -348 -261q0 29 -29 29q-202 -354 -202 -463l202 -58q290 0 377 521l58 29h87
v-87q-87 -258 -87 -289v-145q0 -23 87 -87q259 0 434 434q58 203 116 203q58 -9 58 -58v-87q0 -153 -174 -318q38 -174 87 -174h29l203 29v-29q-29 -87 -174 -87h-87q-116 60 -116 145h-29q-208 -145 -318 -145q-203 72 -203 203h-29q-150 -145 -261 -145h-58q-96 0 -202 87
h-87q0 -85 -116 -145h-29q-174 0 -174 145q58 263 58 290h87l145 -116h58q358 898 463 898zM4925 667h29q71 -58 116 -58v-87h-29q-71 58 -116 58v87zM10485 667q128 0 290 -232q0 45 116 116q128 -116 144 -116h29q0 75 145 203h58q42 0 87 -87q0 -80 -261 -232
q-58 -87 -86 -347l86 -174q580 266 580 695h29q57 -9 57 -58q-57 -273 -57 -435l28 -144h87q290 0 493 608l116 87q256 0 347 -406h29q0 85 261 290h115q108 0 174 -348q87 0 87 -58v-29h-203v203q0 174 -173 174q-273 -281 -319 -521h-87l29 289v29q0 172 -174 290h-86
q-52 0 -232 -492q-224 -232 -377 -232q-170 0 -231 260q-343 -289 -464 -289q-202 0 -202 318q0 138 87 348q-46 0 -116 58q-127 -73 -319 -435q-262 -260 -492 -260q-261 45 -261 232q89 608 521 608q0 66 145 87zM2811 609q-145 -323 -145 -406h29q187 0 232 261
q-21 145 -87 145h-29zM10369 464v-116l145 -29q145 37 145 87v58q-78 0 -174 87h-29q-41 0 -87 -87zM321 493h58q-29 -161 -29 -377q434 -113 434 -376q-234 -377 -579 -377q-131 0 -145 319q261 660 261 811zM9906 -28q44 -116 87 -116h116q231 0 521 376l-58 29
q-29 0 -29 -29q-318 47 -318 232q-319 -186 -319 -492zM5475 435q137 0 377 -203v-29l-29 -260q29 -51 29 -116h29q42 0 434 550h87q116 0 116 -348q308 319 434 319q87 -29 87 -174l-29 -145h29q372 290 521 290q120 0 232 -145h116v-58q-58 -206 -58 -231v-145l29 -58
q116 58 203 58v-29q-17 -69 -203 -145q-145 40 -145 203v116h-29q-420 -319 -579 -319h-29q-156 0 -203 116v116q0 134 58 463h-87q0 -58 -231 -232q-184 -376 -232 -376h-29q-58 0 -58 58q116 295 116 521l-29 58q-55 0 -434 -550l-58 -29h-116l-29 145h-29
q-257 -232 -434 -232q-232 0 -261 319q0 355 434 492zM5128 -28q46 -232 116 -232h87q311 0 405 492l-174 116h-116q-318 -203 -318 -376zM4520 290l29 -58q-464 -137 -464 -434v-87q0 -45 116 -116h29q463 131 463 463v29h58q58 -9 58 -58l-58 -231q44 -116 87 -116
q116 58 203 58v-29q-47 -116 -203 -116h-58l-144 116q-136 -203 -377 -203h-29q-201 0 -261 290q0 388 551 492zM7010 -260q9 -58 58 -58q236 0 666 376v29q-49 145 -145 145q-258 0 -579 -434v-58zM1566 116q58 -9 58 -58v-86q0 -283 -521 -638q-116 -193 -116 -231h-116
q0 112 174 318q-232 73 -232 290v145q0 213 87 231h58q-58 -204 -58 -231v-145q0 -203 174 -203q118 25 492 608zM176 -463q29 -87 58 -87q204 19 434 261q29 56 29 87q-110 231 -289 231h-58q-87 0 -174 -492zM2145 -202q0 -145 -29 -145q29 -56 29 -87h29q45 0 116 116v29
q0 42 -87 87h-58z" />
    <glyph glyph-name="a" unicode="a" horiz-adv-x="2051" 
d="M871 1622h492q310 0 464 -550q-29 -743 -29 -840q38 -203 173 -405q-29 -48 -29 -145h-87q-72 0 -347 -87h-58q0 58 -29 58q-278 -174 -463 -174h-261q-637 121 -637 840q0 394 927 550v58l-145 29q-68 0 -492 -145h-58q-116 47 -116 203v87q0 364 116 376
q109 145 579 145zM379 1391q0 -290 115 -348q160 29 232 29q387 0 434 -203q29 0 29 -29v-29q0 -45 -115 -115l-58 28q-724 -111 -724 -289q-42 0 -87 -87v-174q0 -40 289 -376q-29 0 -29 -29q106 -87 203 -87l-29 58q235 0 377 29l58 -29q56 0 347 174q29 0 29 58h29
q42 0 87 -87v-145q203 58 203 145q-87 136 -87 521v174q0 104 29 260l-29 58q29 56 29 87q-69 550 -435 550h-29q-29 0 -29 -29l-144 29q-695 -22 -695 -144zM321 1159v-58q9 -58 58 -58v58q0 58 -58 58z" />
    <glyph glyph-name="b" unicode="b" horiz-adv-x="1849" 
d="M639 1970l116 -29q51 29 116 29v-29q51 -782 87 -782q-29 -87 -58 -87q58 -203 145 -203v-29l-29 -58q507 0 753 -550v-87q0 -274 -406 -695l-116 -29q-296 29 -463 29q0 -58 -58 -58h-29q-70 58 -116 58q-206 -29 -231 -29q-261 0 -261 956q-29 0 -29 376q0 29 29 29
l-29 145v261q0 186 29 376q-29 105 -29 319q80 0 579 87zM176 1825l58 -87l-29 -174q145 0 145 -58q0 -41 -87 -87q29 -579 29 -868v-116q87 -433 87 -463h-29l86 -145h-57v-58q65 -109 231 -203q56 0 203 58q51 -29 116 -29l202 29l-57 87v87q166 -181 231 -203
q153 43 290 348q58 0 58 202v29q0 243 -464 522h-289q-87 246 -87 260q58 0 58 58q0 59 -58 550v261q0 58 -58 58h-116q-134 0 -463 -58zM842 464l174 -29q0 29 29 29l231 -145v-29q-136 -379 -202 -434q-185 -58 -232 -58q-203 40 -203 116v115l-29 290q153 145 232 145z
M755 319q0 -116 58 -376h29q232 29 232 202q0 110 -174 203z" />
    <glyph glyph-name="c" unicode="c" horiz-adv-x="1993" 
d="M1160 1477h58q333 0 377 -144l-29 -58q87 -201 87 -406q-869 0 -869 -492q116 -232 319 -232h173q319 75 319 203h87q0 -86 231 -492v-58h-58q0 87 -57 87v-232q-229 -261 -724 -261q-617 0 -869 522q-120 346 -145 347q0 447 521 985q375 231 579 231zM205 232l174 -232
h-29l-87 58v-29q0 -163 289 -289l-29 58v29q249 -261 608 -261v87q113 -87 174 -87q336 0 406 290v144q0 58 -58 58l-116 -29l-58 29l-203 -58q-420 0 -579 319q-58 105 -58 261q0 200 637 434q65 0 116 29q56 -29 87 -29q-67 348 -261 348q-642 0 -1013 -927v-203z
M1450 1333q29 -51 29 -116h58v58q0 58 -58 58h-29z" />
    <glyph glyph-name="d" unicode="d" horiz-adv-x="2341" 
d="M1942 1883q197 -205 319 -2635q-29 0 -29 -29q-230 58 -348 58q0 -70 -521 -174l-203 -58q-668 127 -984 434q-116 167 -116 261q0 445 405 811q147 147 435 202l58 -29l58 29q188 -57 260 -57h58l-87 1129q97 0 145 -29q198 29 319 29h144zM1508 1709l-203 58v-29
q116 -98 116 -174q-58 -94 -58 -145q58 -477 58 -752v-116h-58q-213 116 -376 116h-58q-455 0 -666 -580l58 -144q-58 -147 -58 -203q297 -521 1216 -521q112 0 405 260q57 -29 87 -29v1130l-29 173q0 29 29 29q-58 755 -116 1014h-86q-252 -24 -261 -87zM1045 203h260
q42 0 87 -87q0 -58 -58 -58l58 -405q0 -116 -318 -116q-348 0 -348 377q0 251 319 289zM842 -115q0 -232 232 -232h202q0 65 29 116q-58 275 -58 347h-29q-376 0 -376 -231zM1392 -492h29q58 -9 58 -58v-29h-29q-58 0 -58 58v29z" />
    <glyph glyph-name="e" unicode="e" horiz-adv-x="1848" 
d="M1189 1506q522 0 522 -955v-174l-58 -29q-29 0 -29 29q0 -50 -927 -116v-116q0 -250 463 -289q212 0 290 260h58q132 0 261 -521q0 -161 -898 -405q-637 108 -637 318q-87 178 -174 492q0 908 811 1419q45 0 318 87zM205 493q0 -29 29 -29q-58 -280 -58 -319h29
q56 29 87 29l29 -58q-58 -9 -58 -58l347 -376v-29q-53 6 -318 319h-58v-29q190 -262 405 -435h29v29l-58 87v29h29q0 -105 492 -174h29v58h58q71 -58 116 -58q153 0 290 203q-29 261 -116 261q-174 -174 -434 -174q-383 57 -493 231l29 58v261l29 145h87q248 0 521 -29
l290 58v-29q87 29 87 58q0 869 -290 869q0 28 -29 28h-87q-289 0 -492 -231q-280 -154 -521 -695z" />
    <glyph glyph-name="f" unicode="f" horiz-adv-x="1617" 
d="M726 1854h87q526 0 608 -261q42 0 87 -87v-58l-29 -173q58 -95 58 -174q0 -68 -203 -87q-93 203 -260 203h-29q-64 -52 -261 -87q-87 -162 -87 -319q29 0 29 -29q157 58 579 58v-231q0 -57 58 -290l-58 -29q-95 58 -174 58q-206 -29 -231 -29q-56 29 -87 29
q0 -29 -29 -29q29 -340 29 -492v-348q0 -87 -290 -87l29 -58h-58q-63 43 -376 87q-58 960 -58 1303q0 738 666 1130zM350 1333q41 0 86 -87v-29l-115 87q-29 -56 -29 -87v-87h-29v-87l-87 -434l58 -348q-29 -51 -29 -116v-173l203 -232h-29q-113 87 -174 87
q186 -319 376 -319h87v116l-58 87q87 0 87 58l-58 116q29 50 29 115q-29 87 -58 87q0 406 232 406l-58 87v29h29q128 -116 145 -116h58q29 0 29 29q95 -58 173 -58h29l-29 58v231h-29q-159 0 -463 -57l29 -58h-29l-145 58l29 144v58q0 105 -116 232v29l116 -87
q109 174 145 174l261 116q106 0 260 -116q145 54 145 231q-237 261 -434 261q-29 -56 -29 -87q-29 0 -87 116q-150 0 -492 -348q-29 -56 -29 -86zM234 -347v-29q58 -116 174 -116q0 36 -174 145z" />
    <glyph glyph-name="g" unicode="g" horiz-adv-x="1993" 
d="M1740 1593v-29l-58 -116q106 0 145 -144q-29 -152 -29 -174q0 -16 115 -1390l-29 -58q29 -51 29 -116v-29q0 -492 -984 -492h-203q-666 64 -666 637v58q236 145 463 145q80 -261 406 -261h29q231 0 231 116l29 145v202q56 -29 87 -29v87l-289 -29h-203q-666 184 -666 637
q0 358 463 753l145 29l203 -29q280 51 782 87zM292 927q0 -477 550 -724h261v58l260 -87l29 -289h-29l29 -58v-203q-318 -108 -318 -174v-29h-58v58h-58l-203 -29l-232 145l-87 145l-173 -58q29 -116 116 -116v-29h-58v-29q144 -231 289 -231q0 52 -202 202v29q28 0 28 29
q-57 0 -57 58h29q413 -348 550 -376l29 58l144 -29q58 0 58 57l145 -28q348 145 348 260l87 203v58q0 197 29 347q-27 522 -116 522v115q0 203 -58 203q19 232 58 232l-29 58q29 50 29 116q-109 0 -232 86q-119 -45 -666 -115q-407 -167 -492 -435zM1160 1188h29
q87 0 87 -290h-29q29 -231 87 -231q-29 -44 -29 -174h-231q-126 0 -232 58q-51 -29 -116 -29l-145 231v87q0 228 348 319q112 29 231 29zM697 840q0 -260 348 -260h86q58 0 58 58v434q0 58 -58 58q-434 -71 -434 -261v-29zM205 -521v-29q0 -39 145 -145v29q0 39 -145 145z
" />
    <glyph glyph-name="h" unicode="h" 
d="M408 1506h347q37 -500 116 -868q232 173 492 173q271 0 550 -260q87 -790 145 -1101q-29 -231 -87 -231h-29q-65 0 -115 29l-58 -29q-378 0 -435 318q-165 406 -203 406q-173 -80 -173 -377q29 -95 29 -203q-51 -29 -116 -29h-87q0 -86 -203 -86h-145q-231 0 -231 318
q-29 0 -58 174q0 29 29 29q-58 388 -116 1129q58 0 58 58v174q0 65 -29 116q29 50 29 116v86q232 58 290 58zM205 1391q82 -1854 174 -1854v-87h-29v-58q56 29 86 29l203 -29l261 58q-29 87 -58 87q0 364 289 550h29q328 0 406 -724l145 29h116v29q0 190 -29 493l29 405
q0 434 -493 434q-492 -144 -492 -434h-29q-58 71 -58 116q0 186 -87 984h-116z" />
    <glyph glyph-name="i" unicode="i" horiz-adv-x="951" 
d="M350 1970h29q291 0 405 -435q0 -318 -376 -318q-229 0 -319 347q0 236 261 406zM176 1564q0 -87 203 -202v-29h115q156 0 203 115v174l-174 203q-50 29 -115 29l-232 -261v-29zM60 1014l116 -29q430 29 579 29q116 -43 116 -87q0 -375 -58 -521q29 -56 29 -87h-29
q58 -148 58 -666v-232q-31 0 -87 -29q-317 29 -550 29h-29q-145 0 -145 1303v290zM408 898h-261q0 -101 87 -898q0 -30 -29 -86l29 -174v-174q9 -58 58 -58h434q0 55 -58 348h29l-29 58v550q0 145 -29 434h-145q-29 0 -29 29z" />
    <glyph glyph-name="j" unicode="j" horiz-adv-x="1646" 
d="M958 1825q347 -91 347 -463q0 -177 -202 -319h-58q-262 0 -493 290q0 492 406 492zM639 1391q188 -203 319 -203h29q144 37 144 87v29q0 208 -260 376h-29q-140 -66 -203 -289zM842 898h434q140 0 290 -1187q-110 -492 -203 -492h-318q260 144 260 434v58q0 606 -87 1100
h-202v-87q-97 0 -203 87q0 -29 -29 -29q58 0 116 -666q-58 -608 -290 -608h-29q-75 0 -202 87h-87q-58 -9 -58 -58v-29h29q56 29 87 29l58 -87q-29 0 -29 -29q29 0 29 -29h-29q-58 0 -58 58q29 0 29 29l-58 -29h-87l-29 -58q116 -115 174 -115v-58h-261q0 30 -29 86
q0 435 116 435l145 29q97 0 231 -87h116q116 369 116 434q0 533 -145 695v58z" />
    <glyph glyph-name="k" unicode="k" horiz-adv-x="2109" 
d="M1421 1419q275 0 608 -289l-405 -753q-39 0 -145 -232q463 -713 463 -811q58 -9 58 -57v-58h-579l-145 29v-29q-98 0 -202 492l-116 87h-29q58 -389 58 -579h-58q-58 0 -87 231q29 51 29 116v29q0 58 -58 58q35 47 58 290h29q143 -76 145 -116l58 29h28
q105 -334 319 -522l348 29q0 -29 29 -29v58q-377 696 -464 724q0 145 377 840v29q-203 138 -203 174l87 58q98 -203 145 -203q66 0 86 145q-229 145 -347 145h-29q-105 -82 -261 -435l-289 -463q-44 0 -116 -87q-79 202 -145 898q-87 29 -87 58q-46 -35 -289 -58
q58 -174 58 -753q29 -125 29 -203h-29l58 -116l-29 -145q57 -9 57 -57l-57 -29l57 -145l-28 -174l57 -116h-57v-58q115 -14 115 -87v-29l-115 58v-144h-116l-174 1245v87h29l-29 58v608h-58v87q174 0 174 58l145 -29q285 58 318 58h29q123 -269 232 -695h58q0 86 405 723z
M205 1101v-348l29 -144h-29q38 -174 87 -174v29q-29 198 -29 318h29q-29 87 -58 87l29 145v87h-58zM263 348v-232h29v232h-29zM263 29v-115h58v58q0 57 -58 57zM1218 58h58q46 0 116 -115v-29h-29q-39 0 -145 144zM1103 -28h28q58 -10 58 -58v-29h-29q-57 0 -57 58v29z" />
    <glyph glyph-name="l" unicode="l" horiz-adv-x="1298" 
d="M465 1477h435q29 0 29 -29l58 29h29q87 0 87 -115q0 -234 115 -1999v-29l-202 -144q-142 0 -666 -116h-174l-29 145v115q0 299 -29 464l29 289l-87 1217q260 173 405 173zM494 1391h-115q-58 0 -87 -319l29 -145v-318q0 -610 115 -840l-57 -29q0 -255 289 -348
q29 0 29 29q87 -29 319 -29l87 261q-29 256 -87 550q29 112 29 232h-29l29 58q-29 486 -29 753l-29 145h-29q-166 0 -203 28q-157 -28 -261 -28zM610 1159h29q116 -44 116 -87v-29h-29q-45 0 -116 116zM784 985q116 -43 116 -87v-58h-87zM408 -579v-29l144 -29q0 58 -58 58
h-86z" />
    <glyph glyph-name="m" unicode="m" horiz-adv-x="2457" 
d="M523 1072v-29q0 -58 -231 -87q0 -29 -29 -29q-56 29 -87 29q-29 -56 -29 -87q0 -173 116 -1100v-174h58l-29 -203v-29h144l-28 58v29h144q29 0 29 -29l58 29q29 0 29 -29q116 29 116 145q0 29 -29 29l58 319q-58 0 -58 58v57h29l434 -405q82 0 348 434q203 0 203 -347
q-29 -253 -29 -290h87q57 0 57 87q87 0 87 -87h174q58 0 58 58q-29 800 -87 956q29 51 29 116q0 43 -58 260q29 56 29 87q75 0 145 -608q29 0 29 -29v-116q0 -29 -29 -29l29 -58v-173q0 -246 87 -435l-29 -145l-145 29q-22 0 -174 -29q-156 29 -260 29l-58 -29
q-116 44 -116 87q0 29 29 29l-58 435h-29q-153 -290 -203 -290q-174 -20 -174 -87h-29q-202 145 -202 232h-29v-29q29 -157 29 -261q-220 -173 -550 -173h-87q-232 0 -232 1737q87 0 87 58h174zM610 1014h58q140 -323 463 -608h29q87 29 87 174q-29 0 -29 29q46 0 290 347
l58 29q521 -47 521 -116h-29q-22 0 -174 29l-144 -58v58h-116q-198 0 -232 -260q-153 -319 -203 -319h-29l29 -58v-58h-29q-412 500 -550 811z" />
    <glyph glyph-name="n" unicode="n" horiz-adv-x="1820" 
d="M234 1304h318q85 -72 203 -435q232 -179 232 -289h58v144q0 146 29 435q-58 0 -58 58v87q96 0 637 -87h58v-203q0 -166 29 -203q-29 -156 -29 -260v-551q0 -28 -29 -28q0 -29 29 -29l-29 -203v-87q0 -65 29 -116q0 -232 -174 -232q-206 -28 -232 -28v57l-58 -29h-58
q-39 0 -318 464h-29l29 -145v-232q-87 0 -87 -87q-289 -28 -434 -28h-29q-174 0 -174 202q-58 280 -58 782v579l-29 290zM292 1159q0 58 -58 58h-29v-174q0 -65 29 -116q0 -29 -29 -29q116 -497 116 -637h-29q0 -311 434 -550q0 29 29 29q0 53 -58 232q116 0 116 115
q174 -101 174 -144q-29 -51 -29 -116q46 0 260 -348q44 -29 377 -58q0 31 -29 87q29 246 29 406v115q0 66 -29 116q29 51 29 116l-29 116q58 0 58 87q0 130 29 637q-73 0 -377 58q-56 -29 -87 -29q0 -1158 145 -1158l-116 -29q-254 283 -376 579l-261 405q-116 246 -116 319
h-57zM523 145q46 0 116 -116h-29q-41 0 -87 87v29zM350 -115v-29l144 -174v-29h-29l-57 29v-58q0 -41 173 -174h87v29l-29 58h116q-233 348 -405 348zM494 -347h29q42 0 87 -87h-87q0 31 -29 87z" />
    <glyph glyph-name="o" unicode="o" horiz-adv-x="1964" 
d="M1218 1130q273 0 580 -492q86 -261 86 -435q-135 -782 -376 -782q-147 -173 -377 -173h-202q-511 0 -782 579q-58 161 -87 405q324 898 1100 898h58zM1160 1043l87 -116v-29h-29q-56 29 -87 29v-29q406 -418 406 -463h-58q0 86 -319 289l-57 -28q-29 56 -29 86h-58v-58
h58v-28h-87l-58 86q9 58 58 58h58l58 -29q-69 203 -116 203q-366 0 -724 -637q0 -31 29 -87q-29 -199 -58 -261q302 -579 521 -579q157 -87 261 -87q463 87 463 348q64 8 203 492q-42 0 -87 87v58h29l58 -29q0 29 29 29q-8 50 -145 232h29l58 -29q0 116 29 116
q-162 257 -406 376h-116zM1189 551h58q58 -9 58 -58v-116q-45 0 -116 116v58z" />
    <glyph glyph-name="p" unicode="p" horiz-adv-x="1761" 
d="M842 1304h203q637 -159 637 -637v-116q-332 -377 -608 -377h-116q58 -530 58 -579q-110 -285 -174 -290h-521q-203 0 -203 348q-58 624 -58 927q0 579 174 579q260 145 608 145zM321 1043q0 -29 29 -29q0 -31 -29 -87q39 -540 58 -579l-29 -58q58 -302 58 -318h-29
q86 -181 86 -261q-29 -56 -29 -87h58q29 0 29 29q232 -29 232 -58q48 29 145 29v116q0 333 -87 550q58 0 58 145h203q521 0 521 289q-149 493 -608 493q-65 0 -116 29q-550 -70 -550 -203z" />
    <glyph glyph-name="q" unicode="q" horiz-adv-x="1732" 
d="M1334 1564v-58h-58v-29q261 0 261 -173q29 -262 58 -898q0 -29 -29 -29l87 -869q-51 -29 -116 -29v-58l29 -58q-106 -58 -232 -58h-145q-289 0 -289 406q0 29 29 29q-36 258 -58 318l29 174v58l-29 58l-348 -29h-58q-298 0 -376 405l29 116l-58 29q0 579 261 579
q0 58 1013 116zM176 1043l145 -261h-58q0 116 -87 116v-29l145 -231v-29l-116 87v-29q58 -119 58 -174h87v58q122 -116 231 -116h116q69 47 232 87q56 -29 87 -29v-348q58 -204 58 -231h-29q45 -377 115 -377h145l203 58q-145 1249 -145 1448v348q-240 57 -463 57
q-179 -57 -608 -86q-116 -225 -116 -319zM813 1217h87q41 0 87 -87h-29q-115 29 -203 29q9 58 58 58zM1363 -579v-29h58q56 29 87 29v29h-58q-56 -29 -87 -29z" />
    <glyph glyph-name="r" unicode="r" horiz-adv-x="1906" 
d="M465 1448q116 -57 203 -57l-29 -145l58 -232h58q0 206 753 261q319 -284 319 -608h-29l-319 -145q-31 0 -87 29q-405 0 -405 -464q-29 -289 -29 -434q29 -56 29 -87q-435 -58 -522 -116q-97 0 -231 87v-145h-87q-29 220 -58 290l29 58q-29 317 -29 550v29q0 65 -29 116
q0 29 29 29q-29 289 -29 434v435q0 69 405 115zM147 1333v-261q7 -145 58 -145q0 -31 -29 -87q47 -637 116 -637l-29 -58v-145l116 -144h-29l-58 29v-29q0 -35 260 -232q232 0 232 174q87 187 87 376q0 104 -29 261q0 123 203 232h144q104 0 261 -29q192 78 232 173v29
q0 195 -290 319h-116q-58 -9 -58 -58q49 -4 203 -261h-58q-27 0 -232 261l-347 -174q0 -58 -58 -58v-260h-87l-87 318q0 29 29 29q-46 406 -116 406q-198 -29 -318 -29zM292 -260v-116q21 0 173 -29v58q-39 0 -173 87z" />
    <glyph glyph-name="s" unicode="s" horiz-adv-x="1964" 
d="M1103 1651h115q551 -52 551 -318v-174l-29 -58q-290 29 -435 29h-87q-216 -35 -231 -116v-87q49 0 144 -87h261q232 0 492 -492q0 -869 -144 -869q-75 -74 -493 -260h-29q-29 0 -29 29l-260 -58q-695 0 -695 144q-58 218 -58 232q0 29 29 29l-29 145v203q271 -36 347 -58
l174 29h29q65 0 116 -29q346 119 347 144q0 38 145 145v58q-91 174 -318 174h-87q-507 -58 -521 -58q-348 65 -348 521q0 493 521 695h87v-29q-550 -213 -550 -608q47 -492 318 -492h58q79 0 174 58l58 -29l145 29q579 -74 579 -377v-87l-29 -57q29 0 29 -29
q-112 -37 -174 -145q-108 0 -231 -87h-290l29 -58h-58q-95 58 -174 58h-29q-29 0 -29 -29l-231 116l-29 -145l58 -116q-29 -51 -29 -116l145 -87h173q0 58 29 58q145 -87 232 -87h116l87 58h231q0 155 232 232q11 80 116 145q98 232 116 232l-29 57q0 138 29 290
q0 361 -377 463l-145 -29q-318 0 -318 261v29q10 85 289 174v29l493 -58q0 347 -203 347q-201 58 -348 58h-173q-104 0 -261 -29h-29v29q273 58 435 58zM987 696h29q115 -44 115 -87h-28q-116 43 -116 87z" />
    <glyph glyph-name="t" unicode="t" horiz-adv-x="1472" 
d="M205 1448h492q78 -463 145 -463h58q145 0 434 29q29 -29 58 -434q-307 -116 -405 -116h-174l-29 -290v-174q0 -260 261 -260q115 58 202 58l29 -58v-29q0 -29 -29 -29q29 -56 29 -87l-29 -58q29 -56 29 -87h-29l29 -58q-15 -102 -173 -231v-29q-58 0 -58 29l-290 -29
h-174q-222 0 -434 434q-58 261 -87 898q0 43 29 405q-29 152 -29 290q145 145 145 289zM321 1362h-29v-29q1 -47 260 -232q0 -31 29 -87h-29l-202 174h-58v-87q0 -126 58 -232q-29 -50 -29 -116q6 -115 58 -115l-29 -58v-116q0 -65 29 -116q-23 -61 -58 -319
q29 -114 87 -202h-58q29 -348 173 -348l-29 -58l58 -29l58 29l232 -87q51 29 116 29q58 0 58 -86h115l-57 86q115 96 115 261v58h-202q-290 0 -290 318v377q52 261 116 261h203q289 0 289 58q0 25 -29 231l-202 -29l-145 29q-29 -56 -29 -87l-58 29h-29q-29 0 -29 -29
q-119 40 -174 145q87 0 87 116q-36 290 -116 290q-156 -29 -260 -29z" />
    <glyph glyph-name="u" unicode="u" horiz-adv-x="1791" 
d="M1247 1391l174 -58q116 58 203 58q58 -106 58 -232v-116q0 -87 -29 -87l29 -145q0 -445 29 -1216q-106 -58 -232 -58h-29q-65 0 -116 29q-148 -87 -289 -87h-377q-371 0 -579 550v29l29 145q-58 498 -58 811v116q18 174 87 174h174l173 -29q48 29 145 29
q74 -742 116 -898q0 -203 203 -203h58q151 0 173 637q0 118 -29 522q31 0 87 29zM1247 1246l29 -290v-376q0 -366 -202 -464v-29q-464 0 -464 580v550h-174q-202 0 -202 -348v-492q0 -724 289 -724q185 -51 232 -87h174v87h29v-58h29q347 224 347 261q116 -29 116 -174
q-29 0 -29 -29h203q-29 579 -29 869v666l-29 145z" />
    <glyph glyph-name="v" unicode="v" horiz-adv-x="2254" 
d="M147 1796h58v-116h-29zM1595 1333q423 0 579 -116q-290 -1168 -521 -1796q-474 -116 -493 -116h-202l-145 29v29l29 58q-29 0 -29 29l-58 -29q-136 0 -347 782q-271 840 -348 840v58l492 145q541 -714 551 -927l-58 29h-29q68 -174 115 -174l319 1130zM1537 1217
q-145 -453 -261 -927q29 -56 29 -87q-74 -116 -116 -116q58 -206 58 -231l-58 -29q0 68 -202 376q-203 550 -290 550l29 58q-113 263 -203 319q-211 -13 -289 -87q116 -324 463 -985q68 -232 174 -405q0 -145 232 -145h115q73 0 261 58q0 -29 29 -29q261 712 492 1593v58z
M1218 -173q232 -106 232 -145v-58h-58q-29 0 -174 174v29z" />
    <glyph glyph-name="w" unicode="w" horiz-adv-x="2833" 
d="M755 1246q9 -58 58 -58q-29 -56 -29 -87q116 -377 232 -666h29q318 292 318 318h87q58 0 232 -347h29q50 0 260 695h29q153 0 261 -29q152 29 289 29h203q0 -91 -289 -1043q0 -64 -116 -724q-289 -29 -435 -29h-173q-67 29 -232 377h-116q-132 -256 -376 -377h-29
q-29 0 -29 29l-58 -29h-261q-131 0 -260 116l29 58q-58 119 -58 174h29l-319 1535h29q138 0 666 58zM176 1043q0 -57 116 -232q0 -145 231 -1216q87 0 87 -58h-87v-29q0 -41 87 -87h87v58h29q79 0 174 -58q9 58 58 58h145q260 362 260 464h116q193 -252 290 -522h260
q87 112 116 377q29 0 29 29v87l-29 58q58 0 58 28q-58 95 -58 145l58 -29l29 58l-29 58q232 87 232 377q58 0 144 376q-56 29 -86 29q-73 0 -232 -29h-232q-202 -790 -260 -811q-164 133 -319 493h-58q0 -58 -261 -464v-87q-197 0 -434 985l-58 29h-405q-58 0 -58 -87z
M2145 898h58q42 0 87 -87h-87q-58 0 -58 58v29zM1247 609q0 -46 -58 -116h29l87 116h-58z" />
    <glyph glyph-name="x" unicode="x" horiz-adv-x="2544" 
d="M1682 1709h29q156 -116 463 -232l29 -144q-50 0 -319 -609q-46 0 -173 -231v-29l753 -724v-29q-57 -141 -580 -550h-57q-51 0 -493 405q-291 -391 -376 -434h-87q-550 367 -550 608q48 0 376 463v58q-408 437 -637 753q0 180 319 608h29q57 -9 57 -58v-58
q-105 0 -231 -376q166 -224 666 -753v-145q-377 -467 -377 -550q256 -377 435 -377q0 182 289 522v29h58q433 -327 637 -522q399 341 406 406l-782 724v87q58 0 232 318q115 149 231 550q-268 145 -318 145q-388 -573 -551 -926l-57 -29q-58 0 -58 58q29 56 29 86
q-551 523 -551 695h29l579 -608h29l-29 145q80 0 406 521q99 203 145 203zM1189 203h29q58 -9 58 -58v-29h-29q-58 0 -58 58v29z" />
    <glyph glyph-name="y" unicode="y" horiz-adv-x="1935" 
d="M1247 1738h29q377 -145 406 -145v-29h-29l-116 29q-56 -29 -87 -29q0 42 -87 87h-29l-58 -29l-29 58v58zM697 1622h29q7 -239 319 -579l202 550q58 -9 58 -58q0 -29 -87 -405l58 -116l-58 -29q0 29 -29 29l-29 -145l29 -58q-86 0 -86 -58q0 -121 173 -318v-29h-29
q-29 0 -231 232l29 58q-232 521 -435 839l-318 -116q319 -703 579 -897q289 -333 289 -377h-29q-21 0 -231 232h-29q0 -108 -58 -174q29 -125 29 -203h-29v-86q288 -388 376 -435h58v145q36 0 58 116q-29 56 -29 87l58 29q0 27 -116 173v29l87 -58h29v58l-29 145l58 -29h29
l58 348l-29 58q87 0 319 926l-29 58v29h144q0 -93 -376 -1650q-72 -638 -261 -638q-181 -28 -405 -28h-232q-58 0 -58 86q0 73 29 232l-29 145q58 211 58 434q0 329 -434 1217q-56 28 -87 28v87q9 58 58 58h29q58 -9 58 -58q130 0 492 116zM813 -231v-116q100 -203 261 -203
v29q-203 232 -203 290h-58z" />
    <glyph glyph-name="z" unicode="z" horiz-adv-x="2370" 
d="M350 1564l115 -58q0 58 29 58q390 -58 493 -58h87q248 0 521 29q289 -29 289 -87q0 -54 -434 -666l-319 -637v-58h29q697 0 1072 116l58 -87v-724q0 -58 -58 -58h-637q-270 0 -492 -29q-724 0 -724 290q0 136 -58 203q0 101 434 1071h-29l-174 -29h-87q0 -87 -57 -87h-87
v29l58 87l-58 -29h-29q-158 0 -232 145v434q0 66 290 145zM263 1448q0 -29 -29 -29l29 -144v-319h434l145 87q145 -119 145 -145v-29q-145 0 -145 -145q-107 -136 -319 -752h-29q0 -22 116 -232h-29q29 -56 29 -87l-29 -58q58 -94 58 -145h116l-29 58v29l58 -29h29v58h58
v-29q-29 -56 -29 -87h782l174 29q48 -29 144 -29h261q0 87 -29 87l29 290v260q-250 -58 -1072 -115q-47 28 -144 28v145q170 199 347 695q67 0 116 145l319 434h-319q-65 0 -116 -28l-58 28q-58 0 -58 -28l-637 57l-58 -29q-156 29 -260 29z" />
    <glyph glyph-name="asciitilde" unicode="~" horiz-adv-x="2052" 
d="M958 1275q411 -261 492 -261q109 174 145 174q154 -154 347 -203l29 -58q-173 -521 -347 -521h-87q-94 0 -579 318h-116q-143 -76 -145 -115q29 0 29 -29q-33 0 -232 -261h-29q-317 189 -405 348h29q87 0 87 -87h29v29q-87 144 -87 231v29l203 -29q139 435 521 435h116z
M350 724l-58 29h-58q0 -39 174 -173q28 -51 28 -116h58v29l-29 58q116 0 116 87q-29 50 -29 115h29l58 -29q174 58 174 145q337 -87 463 -260h29q0 29 29 29q65 -145 290 -145q203 167 203 434q-40 0 -203 116q-27 0 -174 -116h-29q-86 0 -463 261h-58q-360 0 -464 -261
q-86 -145 -86 -203z" />
    <glyph glyph-name="Agrave" unicode="&#xc0;" horiz-adv-x="2196" 
d="M494 2404q309 -483 522 -695v-87h-87q-87 0 -319 -145q-133 0 -550 724q56 0 434 203zM263 2143l-58 29q116 -231 318 -463l29 58l145 -87v29q-87 29 -87 174q52 0 145 -203q56 29 87 29v29l-406 550q-173 -40 -173 -145zM1074 1477q67 -48 463 -115q434 -370 434 -927
q36 0 87 -348h-29q51 -125 87 -782l-405 -86h-174q-261 69 -261 550q-29 107 -29 260h-231q-174 -80 -174 -231q29 -198 29 -319v-87q0 -115 -521 -144h-58q-53 0 -145 260l29 145v376q0 105 -29 261l29 58l-29 58q112 575 463 898q397 173 464 173zM755 1246v-29h29
q139 87 261 87v29h-87q-175 -87 -203 -87zM465 638v-87h-29v-29l29 -58q-86 0 -86 -203l29 -145q-58 0 -58 -29q0 -70 -29 -434l29 -58l-29 -58q58 -174 115 -174l58 87l145 -29q15 0 116 29v261q0 65 -29 116l116 231q-29 0 -29 29q145 0 145 87l58 -29q144 0 144 87
q377 -124 377 -463q29 0 29 -29q-29 -51 -29 -116l29 -58q-29 -51 -29 -116q29 -87 58 -87l203 29q56 -29 86 -29l116 116v116l-58 203l29 145q-116 786 -202 839q-29 0 -29 29v58q0 29 29 29q-185 377 -290 377h-116q-317 -9 -724 -406q-174 -198 -174 -231zM494 1014h29
l145 174q-99 -23 -174 -174zM1074 927h115q157 -80 232 -492q-61 -29 -261 -58q-50 29 -115 29q0 -58 -58 -58h-29q-145 68 -145 145q0 277 261 434zM900 551q29 -56 29 -87q405 21 405 87q-66 199 -203 318q-231 -155 -231 -318zM292 551q0 -31 -29 -87v-29h29q0 31 29 87
v29h-29z" />
    <glyph glyph-name="Aacute" unicode="&#xc1;" horiz-adv-x="2631" 
d="M1913 1941q239 0 637 -261q-527 -631 -724 -695l-173 87v-29q95 0 173 -1593q29 0 29 -202q-94 -58 -144 -58q-66 58 -551 115q-144 295 -144 551q29 0 29 29h-29l-58 -29q-51 29 -116 29h-29q-29 -438 -29 -608q-69 0 -203 -116l-318 87h-87q-58 125 -116 666
q0 29 29 29l-29 144v87q0 551 492 1072q146 64 579 145q253 -116 290 -116q269 413 492 666zM2000 1825l-260 -348q149 -231 173 -231h29v29q-51 211 -116 289l58 29q145 -260 174 -260l87 58q-58 94 -58 144l87 -58q51 0 145 174h58q0 58 -58 58l-145 -29q-18 145 -174 145
zM1682 1419v-28q116 -167 116 -203h28v29q-98 202 -144 202zM958 1275v-58q-65 0 -116 29q-261 -94 -261 -145q145 -46 203 -145l58 -29l58 29q128 -29 318 -174h29q0 49 -347 290v29q40 0 203 -116l-58 145q58 0 58 87h57l435 -406v58q0 283 -521 406h-116zM1595 1275
q12 -60 145 -116v29l-116 87h-29zM523 1072l-115 -174l28 -58q-94 0 -144 -173h-29v-29l29 -145h-58v-87l87 -116h-58l-58 29v-58q116 -128 116 -145h-116v-202q183 -203 376 -203l29 145q-289 215 -289 260h29q29 0 260 -173h29v115q-231 137 -231 174h57
q394 -260 551 -260v28q-157 146 -435 290q77 608 174 608v29q-136 0 -232 145zM726 724v-173q0 -203 261 -203h231q0 407 -347 492h-29q-45 0 -116 -116zM1334 724l145 -173h-29l-145 29q208 -258 261 -261v29l-87 174v29l58 -29h29q0 45 58 116q0 57 -290 86zM1305 435
q0 -95 -58 -232h-29v58h-463v-29q36 0 405 -260h29l-29 57v58h58v-58l58 29v-86h-58l29 -58h-87v-29q1 -167 174 -319v-29l-87 58h-29v-29q0 -203 232 -203q51 29 116 29l-29 58q9 58 58 58l58 -29v58q-29 95 -29 203h29v58l-87 -58q-65 108 -232 203q29 56 29 86h29
l261 -202v29q0 463 -203 463q0 45 -116 116h-29zM1247 174h58l29 -116q-43 0 -87 116zM205 -202v-29q53 -290 347 -290q29 51 29 116v29q-49 0 -376 174zM234 -492v-29q29 -50 29 -116h318v29q-121 0 -347 116z" />
    <glyph glyph-name="Acircumflex" unicode="&#xc2;" 
d="M987 2520q376 -134 376 -203q-26 0 -405 116q-589 -550 -666 -550v29q9 67 492 521h29l58 -29q0 45 116 116zM900 2259h116q0 -153 463 -376q0 -45 116 -116h29q202 0 202 116h58v-29q-202 -114 -202 -261h-87q-157 128 -695 464l-435 -666h-86q-261 191 -261 289
q58 94 58 145h58v-29l-58 -87v-29q97 0 145 -145q120 9 231 261q261 268 261 405h58l58 -29l-29 58v29zM1160 1362q724 -62 724 -638q97 -375 145 -463q0 -58 -29 -58q37 -353 58 -405q-29 -51 -29 -116v-174l29 -145l-87 -58l-116 29l-57 -29q-31 0 -87 29
q-199 -29 -319 -29h-29q-260 0 -260 232q28 391 28 579h-173l-203 -29l87 -782q-234 -144 -492 -144q-290 0 -290 492q0 1247 405 1448q429 261 695 261zM379 638v-29h29q0 76 376 289q65 145 290 145h115q319 0 319 -290v-173q0 -48 -203 -87l-58 29q-681 0 -984 -550
q-58 -10 -58 -58v-87l58 29v-29q-58 -95 -58 -174v-29l289 261h29v-29l-289 -348v-58l202 -29h29l203 29q-20 203 -58 203q-36 0 -202 -174h-29v58q146 174 231 174v87q0 65 -29 116q29 50 29 115q0 51 -58 145q29 0 29 29q56 -29 87 -29q238 0 666 87v-318h87l-58 -116
q0 -82 87 -406h87q58 0 58 58q46 -35 289 -58v232h-29l-144 -87h-29l202 203v347h-58q58 119 58 174q-36 0 -144 521q-78 49 -203 348q-258 116 -348 116q-299 0 -753 -522q-57 0 -57 -115zM379 840h29q0 30 202 203q-130 -51 -231 -203zM1218 985l58 -116h-29
q-95 58 -173 58q-232 -37 -232 -289v-29h29q232 0 521 58v57q0 17 -116 145h29q56 -29 87 -29v29q-58 116 -174 116zM350 493v-29h29l115 58v-29q-168 -232 -289 -232v-203q492 431 492 464q-58 94 -58 145q58 0 58 57v29h-29q-173 -77 -318 -260zM263 580
q-29 -254 -29 -290q45 0 116 116q-58 95 -58 174h-29zM436 29v-29q0 -57 -57 -57h-29q0 41 86 86zM1247 -202l-29 -261l29 -116h58v29q0 47 -29 348h-29zM263 -666l-29 -57h260v28q-202 0 -231 29z" />
    <glyph glyph-name="Atilde" unicode="&#xc3;" horiz-adv-x="2109" 
d="M1682 2028h231q42 0 87 -87v-29h-29l-58 29v-29q87 -18 87 -232v-203h-29q-58 0 -58 58q-199 0 -608 -318h-260q-290 0 -348 174q58 521 145 521q58 0 58 -87q-29 -56 -29 -87l116 -87l202 29v-29q169 60 493 377zM1074 1506q-203 47 -203 116h-29v-29q29 -56 29 -87
q-29 -56 -29 -87l87 -57l116 86q0 -115 115 -115q174 0 290 173q232 56 232 145l58 -29h115q58 0 58 87l-58 203h-144q-291 -336 -637 -406zM1103 1159q395 0 666 -521l173 -580h-29q87 -195 87 -231h-29q58 -126 58 -464v-58h-29q-206 0 -608 -57l-203 637
q-224 -29 -347 -87l29 -58v-116q0 -145 29 -434h-29q-214 0 -666 -58q0 166 -145 289q0 932 434 1361q272 377 609 377zM408 203l57 -116h-57v-29l-29 -289l347 -290v29q0 145 -58 145l29 58v58l-29 145q115 29 203 29l-29 57q43 0 405 29q56 -29 87 -29q0 -65 -29 -115
q116 -290 145 -493q162 0 434 58q0 -29 29 -29q0 65 29 116q-47 174 -87 174l29 58q0 163 -144 405q29 56 29 87q0 120 -174 319h-87v29h58q-194 335 -377 434q-65 0 -115 -29q-51 29 -116 29q-522 -244 -522 -811q-28 0 -28 -29zM1392 956v-29q203 -187 203 -260h29v28
q-103 223 -232 261zM1074 811h57q261 -213 261 -405v-116q-79 0 -174 58q-401 -145 -579 -174q0 29 -29 29q38 174 116 174v116q0 289 348 318zM784 319q439 116 521 116v29q-57 289 -289 289h-29q-203 -121 -203 -434zM321 493q-174 -480 -174 -811v-29q9 -58 58 -58
q0 79 58 174q-29 50 -29 116q69 0 116 579v29h-29zM1479 493h58l29 -116q-42 0 -87 87v29zM350 -289v-58l29 -145q-29 0 -29 -29l58 -29v29q-29 0 -29 29h29q175 -174 289 -174h58q-229 294 -405 377zM147 -492v-29q9 -58 58 -58h29q-29 56 -29 87h-58zM321 -608v-29
q9 -58 58 -58h86q0 42 -86 87h-58z" />
    <glyph glyph-name="Ccedilla" unicode="&#xc7;" horiz-adv-x="1936" 
d="M1450 1709q131 -48 203 -174q-29 -508 -29 -608h-29q-378 -29 -608 -29q-174 -152 -174 -289v-29q0 -42 87 -87l-29 -58q188 -232 318 -232q143 0 377 232q289 -366 289 -550q0 -181 -521 -406q0 -260 -58 -260h-116v86h-57v-57h-58q-41 0 -174 173h58v58h-58
q-87 -152 -87 -260h-232v58h116v144q-69 102 -405 261q-134 206 -174 492h-29l29 145v203q0 595 869 1129q335 58 492 58zM987 1535v-29q78 0 347 -202l-58 -29q-120 144 -347 144h-29q-406 -245 -406 -347q-260 -179 -260 -434l492 -290q0 211 -174 347v29l87 -57h29
l145 231q168 111 174 174l58 -29q30 0 86 29l174 -29h87l29 203q-58 188 -58 260v87h-29q-146 0 -347 -58zM1450 1593v-116h87v58q0 58 -58 58h-29zM205 551v-87q199 -240 898 -608l28 58q-429 371 -868 637h-58zM292 261v-29q0 -203 608 -434h58v58zM1334 116v-29
q87 0 87 -58l-29 -57q58 -10 58 -58v-116h-116v-29q0 -42 87 -87h58q116 39 116 261l-29 57h87q-53 232 -116 232q-130 -116 -203 -116zM1074 87q1 -39 144 -115h29v28q-29 87 -173 87zM408 -28v-29q128 -145 231 -145v58q-52 0 -231 116zM436 -231v-58q229 -87 261 -87v58
q-69 0 -261 87zM1103 -289v-29h57v-58l-29 -58h87q58 0 58 58l-145 87h-28zM1103 -521v-29q0 -41 86 -87v58q0 58 -58 58h-28z" />
    <glyph glyph-name="Egrave" unicode="&#xc8;" horiz-adv-x="1559" 
d="M813 2375h29q318 -243 318 -405v-29q0 -76 -405 -145l-434 492v29h29l463 -434q290 58 290 116q-19 76 -290 318v58zM842 1622h347q87 0 87 -463h-87q-29 0 -29 29l-173 -58l-174 29h-87v58h203l289 29q0 318 -231 318h-58l-174 -29l-116 29l-579 -87v29q0 116 782 116z
M60 1275h87q0 -1480 116 -1998q964 86 1216 86v-58q-735 -86 -1274 -86q-116 319 -116 637v260q0 429 -29 1159zM581 1188h29q44 0 116 -319l87 -58h290l144 29q0 -69 87 -637q-29 0 -29 -29l-405 58q-44 -29 -174 -29v-29l29 -289h145q367 0 463 144q0 -57 29 -57
q0 -31 -29 -87q29 -199 29 -319v-145h-58v87l-29 348q-645 -58 -695 -58l-29 58q65 0 116 29q-29 29 -58 434h406l86 -58h116l-29 348v86q0 58 -58 58h-492q0 145 -87 435z" />
    <glyph glyph-name="Eacute" unicode="&#xc9;" horiz-adv-x="1848" 
d="M1189 2491h29v-58q148 29 551 58q0 -136 -522 -637q0 -116 -87 -116q-376 76 -376 174v29q226 401 405 550zM871 1941q163 -114 289 -116q0 74 377 434l87 116h-145q-463 0 -463 -232q-35 0 -145 -202zM1131 1593h145v-87q0 -65 29 -115q-89 -377 -260 -377
q-290 0 -290 -174q29 -56 29 -87q-56 29 -87 29q0 22 29 174l-29 145q94 -58 145 -58q318 73 318 145v318h-752q-126 0 -232 -58l29 -57v-348q9 -58 58 -58q0 -58 -29 -58l29 -289v-319q9 -58 58 -58l-29 -58v-58q660 -608 839 -608q57 29 87 29v29q-89 0 -260 203h29
q245 -145 376 -145q29 56 29 87l-29 203h-203l-173 -29q-109 0 -232 173h58v87l-29 145l203 29l-116 145h87q208 -145 318 -145h58l58 29q-37 521 -116 521l-463 -116l-29 58v29l492 116q174 0 174 -579q58 -9 58 -58v-29q0 -58 -58 -58h-434q-71 -58 -116 -58v-87
q0 -64 318 -87q199 29 319 29q87 -376 87 -579h-87v116q-44 0 -87 -116v-87q-347 -58 -1129 -87q-203 313 -203 1854q-58 0 -58 58v145q0 202 348 202q288 29 723 29zM726 580h29q116 -44 116 -87h-29q-116 43 -116 87zM408 174h28q174 -101 174 -145h-29q-173 102 -173 145
zM292 0q0 -266 608 -492v58q-45 0 -435 377q-45 0 -115 57h-58zM321 -289v-58q0 -49 347 -232q48 29 145 29v29q-441 232 -492 232zM350 -492v-58h115v29z" />
    <glyph glyph-name="Iacute" unicode="&#xcd;" horiz-adv-x="1732" 
d="M1103 2462h492l58 -29q0 -133 -493 -985h-29q-136 0 -550 145q46 271 348 753v87zM1103 2375q-58 -95 -58 -174v-87h-87v-144q-145 -131 -145 -174q87 -175 87 -203h87q29 0 29 29l58 -29h29q47 0 115 203q247 405 290 405l58 174h-232q-65 0 -116 -29q-50 29 -115 29z
M726 1709v-29q9 -58 58 -58h29v29q0 58 -58 58h-29zM234 1304q412 -58 579 -58h174q87 -738 87 -1941q-173 -51 -666 -86q-348 0 -348 405v145q58 1150 58 1245v116q9 58 58 58l58 -29q0 29 29 29l-29 58v58zM234 1014h29q131 48 202 174h-57q-87 0 -174 -174zM610 1072h-29
l29 58h-29l-318 -232v-116q261 290 318 290v-29q-126 -133 -318 -434h29q184 184 463 376h29q-492 -447 -492 -637v-87l347 290v-29q-347 -332 -347 -464v-58q259 232 289 232v-29q-159 -170 -289 -376v-116l202 174h29v-29q-141 -270 -202 -319q0 -174 231 -174h58
q188 0 319 348h58q-29 623 -29 927v289l-29 203q29 0 29 29h-232zM784 435v-29q-145 -105 -145 -174h-58v29q72 126 203 174zM668 29v-29q0 -57 -58 -57h-29q0 41 87 86zM842 -86h29v-29q-56 -132 -116 -145v29q37 145 87 145zM668 -289h58v-29l-174 -261q-41 0 -87 87
q203 133 203 203zM929 -405q0 -72 -116 -203v-29h116q58 0 58 58v174h-58zM205 -550q29 -56 29 -87h58q-29 56 -29 87h-58z" />
    <glyph glyph-name="Oacute" unicode="&#xd3;" horiz-adv-x="2398" 
d="M1884 2433l261 -58l58 29q116 -43 116 -87q0 -260 -493 -782q-56 -29 -86 -29q-486 151 -522 261v29l406 608h29q119 0 231 29zM1769 2317q-273 -405 -319 -405l29 -58v-58l-58 29h-29q9 -58 58 -58q56 29 87 29q29 -87 174 -87q76 4 434 492v58q-232 58 -376 58z
M1826 2259q58 -9 58 -58v-29l-58 29q0 -29 -28 -29l-29 58zM900 1506q418 0 550 -231q463 -438 463 -840q0 -728 -839 -1043h-87q-840 116 -840 637q-41 261 -87 261q0 600 550 1158q233 58 290 58zM379 927q29 0 29 -29q-145 -15 -145 -260v-116h-29v-58q595 -480 869 -753
h57v-58h-57v-58l144 29v29q-643 550 -782 724h29q195 -119 724 -608q116 -58 116 -87q319 177 319 347q-376 273 -493 522l58 29q290 -254 290 -319q118 -145 145 -145h58q58 233 58 290v29q0 97 -87 203h58q-348 781 -811 781q-210 0 -406 -260q-89 0 -144 -232zM697 667
h261q40 0 173 -174v-58q0 -97 -86 -203q58 -9 58 -58v-29l-145 87l-58 -29q-251 0 -261 319q58 94 58 145zM900 580v-58h-58l-58 29l-29 -58v-58q0 -45 116 -116h87q41 0 87 87v116q-58 0 -58 58h-87zM1392 609h29q203 -138 203 -174h-58q-116 58 -174 174zM234 348v-87
l753 -608v29q0 44 -637 608q0 58 -116 58zM321 87v-29q0 -186 550 -492h58q-478 478 -608 521z" />
    <glyph glyph-name="Uacute" unicode="&#xda;" horiz-adv-x="1849" 
d="M1305 2491h58l87 -58h87l87 58h87q58 -9 58 -58q-326 -441 -377 -782q-116 -43 -116 -87q-30 0 -87 29q-156 -29 -260 -29v203q95 608 260 608q115 29 203 29v29q-87 0 -87 58zM1218 2288l29 -58v-29q-87 0 -87 -58l29 -173l-86 58l-29 -58v-87q76 -143 115 -145h29
q154 153 319 608h-29zM263 1564l29 -58l289 29h29q45 0 116 -116l-58 -28l29 -290v-463q0 -296 261 -435h87l29 145q0 119 -58 956q6 115 58 115q126 0 521 58l145 -1187q-29 -159 -29 -232q29 -152 29 -173q0 -544 -666 -608q-696 0 -927 550q0 29 29 29q-87 354 -116 666
q39 947 203 1042zM205 898q0 -29 29 -29l-29 -145v-260l29 -145h-29q40 -163 87 -232q-29 -56 -29 -87q36 0 116 -202q185 -203 202 -203l87 58h58l-29 -58v-58l203 -29q9 58 58 58q0 -87 58 -87h58l115 116h29l-58 -116h58q406 96 406 406q-29 56 -29 87q0 104 29 260
q-58 406 -58 811l-58 29l29 145v145h-29q-405 -50 -405 -116q0 -332 86 -898q0 -94 -115 -261q-464 0 -464 724h29l-29 58v203q0 29 29 29q-29 290 -87 290h-29q-276 0 -318 -493z" />
    <glyph glyph-name="agrave" unicode="&#xe0;" horiz-adv-x="2341" 
d="M900 2317q187 0 724 -666v-58q-107 0 -348 -202l-58 -29q-133 17 -434 347q-348 342 -348 463h29q223 0 435 145zM842 2143v-57l203 -58v-29h-116l-116 58h-29v-29q413 -210 550 -348h58q-254 429 -405 521h-29q-71 -58 -116 -58zM987 1738q0 -43 202 -203h29
q71 58 116 58v29q-222 116 -347 116zM1363 1304q607 0 753 -695v-522q0 -259 145 -695v-29q-192 -227 -435 -289q-195 79 -260 174q-141 -87 -377 -87h-58q-736 0 -926 347q-145 234 -145 377v58q0 376 492 376q354 0 435 29q56 -29 87 -29q0 29 29 29q-46 174 -203 174
h-174q-57 0 -290 -58q-132 56 -144 116v347l-29 203q29 0 29 29q30 0 87 -29zM494 1043q-50 29 -115 29l-29 -58q0 -145 29 -434q403 29 521 29l116 -29v29q0 72 -116 86v29h58l1042 -666v464q0 97 -87 202l58 29q-150 348 -463 348l-58 -29q-134 58 -261 58
q-123 0 -695 -87zM1074 869h29q432 -306 781 -521v-87h-58zM1160 435l87 -174q0 -58 -58 -58q-119 0 -231 29q-724 -71 -724 -260l29 -58q-29 -51 -29 -116q50 0 550 -464h29l-58 87h29l174 -116v58l58 -29h58l-203 232h29q193 -203 376 -203v58l116 -29q116 44 116 87
q0 17 -116 145v29q234 -205 492 -348q203 138 203 174q-169 178 -174 203h29q56 -29 87 -29v87q0 32 -318 232q0 30 -29 86h29q94 -29 289 -144v115q-170 0 -521 261v-29q151 -145 203 -145v-58h-29q-78 0 -290 261h29l58 -29v29l-145 87q0 -29 -29 -29l-29 58q29 0 29 29
h-29q-56 -29 -87 -29zM234 -289q0 -191 376 -377h58q-89 132 -405 377h-29zM1653 -376h29q72 -58 144 -58v-87h-28q-39 0 -145 145z" />
    <glyph glyph-name="aacute" unicode="&#xe1;" horiz-adv-x="2486" 
d="M1826 2259q580 0 580 -202v-87l-435 -695h-58q-434 138 -434 260v29q0 137 347 695zM1971 2114v-28h-29l-58 28q-115 -237 -115 -347q29 -56 29 -87l-87 58q-23 -116 -58 -116q75 -186 145 -203h28q72 26 435 667v57h-116v-57q-34 28 -174 28zM755 1275v-29l58 29
q29 0 29 -29l203 29q781 -105 781 -666q29 0 29 -58q-29 -535 -29 -782q29 -203 261 -406l-289 -173q0 -42 -87 -87h-58l-261 202q-70 -268 -724 -289q-398 140 -550 492q0 54 -58 232q0 522 290 637q30 0 86 -29l464 58v87l-116 29q-463 -21 -463 -58v-29h-58q0 22 -29 174
h29q-29 56 -29 86q9 522 58 522q46 29 463 58zM639 724h-58v29q174 251 174 319h-29q-196 0 -376 -463h29q212 0 376 86q0 -46 232 -115v-29h29l115 87h29q-115 -123 -115 -232h29l57 29v-29q-101 -174 -144 -174q-31 0 -87 29q-354 -37 -406 -58q-50 29 -115 29
q-145 -74 -145 -550h58q0 -58 -87 -58q87 -233 87 -261h29l87 58h28l-28 -144q0 -98 405 -145q72 0 405 376h87q9 -56 174 -87q9 58 58 58h29l-58 -87v-29q0 -45 116 -115q260 115 260 144q-137 261 -173 261h-29l29 116q0 72 -29 231q58 330 58 638q0 212 -464 492h-29
l-173 -29l-58 29q-197 0 -377 -406zM350 956v-116q59 13 115 145q-50 -29 -115 -29zM1392 667h29q-54 -105 -174 -145v58q50 0 145 87zM1595 406v-29q0 -58 -58 -58h-29q0 42 87 87zM1363 174v-29q0 -43 -666 -695q0 -116 -87 -116h-58q0 192 666 695q0 39 145 145z
M1305 -202v-29q0 -58 -58 -58h-29q0 42 87 87zM1160 -318h29v-29q-138 -115 -318 -405h-87v29q106 176 376 405z" />
    <glyph glyph-name="acircumflex" unicode="&#xe2;" horiz-adv-x="2341" 
d="M1624 2491v-58q-30 0 -348 -116l-116 29l-29 -58l58 -145q-221 -152 -376 -608h29q56 -29 87 -29l434 435h87q111 -279 290 -406h58q0 76 202 145l-405 666v58h29q84 -14 492 -811v-58q-232 -46 -232 -173q-123 0 -492 376q-51 0 -318 -405q871 0 1013 -638
q0 -54 -58 -926q203 -182 203 -203q0 -58 -58 -58h-29v58h-87v-29q0 -48 203 -87v-58q0 -39 -319 -318h-29q-38 0 -289 289v58h58q198 -231 231 -231q41 0 174 173v58q-82 0 -145 87q0 87 -58 377q87 160 87 839q-115 493 -724 493q-289 -29 -289 -87l-58 29h-174
q-34 0 -232 -261v29q87 145 87 203h-29q-43 0 -202 -232v-174q187 0 405 58v-58h174v-29q0 -65 -29 -115q29 -56 29 -87l58 29h29v-29q-286 -373 -493 -550h-58q0 44 377 376v29q0 58 -58 58h-174q0 -52 -202 -145q-134 -170 -174 -347l58 -29q9 58 58 58h29v-29
q0 -87 -145 -87v-87l29 -145h29q277 213 782 782h29q-202 -311 -753 -898q44 -145 405 -145q0 181 174 261q0 -80 -87 -261h87q401 116 579 116l58 -87q-184 -165 -811 -260h-116q-579 183 -579 637q69 753 405 753h116v58q-376 0 -376 579q306 232 579 232v29
q-174 0 -174 231q0 123 406 695q0 116 58 116h115q418 58 435 58zM321 1101v-116h58q0 45 57 116h-115zM1189 724v-29q0 -41 -86 -86v29q0 41 86 86zM552 667v-58h203v58h-203zM1276 290h29q-58 -71 -58 -116h-58v29q0 42 87 87zM1103 87v-29l-435 -550h29q0 29 29 29v-29
q0 -41 -87 -87h-29l-58 29q52 145 319 406q0 88 232 231zM1189 -144h29q0 -42 -87 -87h-28q0 41 86 87zM1103 -231v-29q0 -45 -116 -116v29q0 45 116 116z" />
    <glyph glyph-name="atilde" unicode="&#xe3;" horiz-adv-x="2283" 
d="M1884 2028h58q87 0 116 -551l-405 -86q-507 57 -608 57q-85 -16 -232 -144q-56 29 -87 29q-56 -29 -87 -29q0 241 -174 405v29q137 174 348 174h87q234 0 550 -87l58 29l145 -29q231 94 231 203zM610 1738q203 -203 203 -232q261 52 261 116l202 -29h203q65 0 116 29
q203 -29 203 -58l57 29h29l58 -29v116l-29 145h-29q0 -80 -260 -145q0 -29 -29 -29q0 38 -637 174zM639 1564v-87q9 -58 58 -58h29v58q0 42 -87 87zM581 1101q953 0 1274 -319q87 -188 87 -347q-116 -285 -116 -521q0 -317 377 -464v-29q0 -18 -319 -318h-58
q-186 145 -231 145q-284 -174 -579 -174q-399 0 -782 231q-31 0 -87 29l29 58q-116 121 -116 290q107 579 463 579l261 -29q56 29 87 29v58q-261 87 -348 87l-144 -29q-145 134 -145 405q29 145 58 145l-29 58q0 58 289 87q0 29 29 29zM494 898v58h-115v-174l86 58v-29
q-47 -202 -115 -202l29 -58l57 29h58q87 -87 493 -203q0 -87 87 -87q-40 -119 -145 -174h-29q-29 0 -29 29l-58 -29h-203q-405 -94 -405 -579v-58h58l116 87h29v-29q-87 -112 -87 -174q244 -173 753 -173q107 0 289 115l174 58q152 0 261 -173q63 0 231 231
q-289 278 -289 551q0 94 115 521v58q0 382 -868 463h-348zM581 -550h29v-29q0 -58 -58 -58h-29v29q9 58 58 58zM900 -579v-58q0 -58 -58 -58l-29 58z" />
    <glyph glyph-name="aring" unicode="&#xe5;" horiz-adv-x="227" 
d="M60 2028h29q58 -9 58 -58v-58q-42 0 -87 87v29z" />
    <glyph glyph-name="egrave" unicode="&#xe8;" horiz-adv-x="2080" 
d="M929 2520q318 -527 318 -608q-59 -55 -347 -145v-58h-58q-248 210 -463 695q296 116 550 116zM842 2433q0 -116 -58 -116v58h-145l-29 -145q0 -126 145 -173l-29 -58q9 -58 58 -58h87q29 0 29 29l58 -29q145 37 145 87q-195 405 -232 405h-29zM755 2288h29v-87l-58 -29
v29q29 56 29 87zM1247 1506q637 -53 637 -405l87 -637l-58 -29h-202q-34 0 -319 -58h-174l-347 29l-29 -58v-29q87 0 87 -58v-29h-29q-56 29 -87 29v-29q0 -123 232 -232q521 118 521 232h145q4 -64 289 -174v-231q0 -379 -782 -464q-955 0 -1158 782v232q0 275 232 695
q379 323 955 434zM523 1130l29 -58q-231 -137 -231 -261q-73 -116 -87 -116l29 -57v-58l-58 29l-29 -58v-29q251 -724 463 -724q-87 145 -87 202v29h29q0 -39 203 -347h58v29l-261 550h58q274 -637 406 -637q29 0 29 29l144 -29q449 0 724 348v28q-65 0 -289 145
q0 -167 -493 -289l-144 29q0 -29 -29 -29q-319 219 -319 695h116q197 0 347 -29q609 0 609 202q-29 57 -29 87l58 -29h29v116q-87 112 -87 174h-87v-29q29 -56 29 -87q-58 0 -58 145q48 29 145 29v87q-58 0 -145 116h-87v58h-29l-58 -29q0 57 -58 57h-145q-260 0 -695 -289z
M176 319v-58q65 -261 145 -261v58q-94 261 -145 261zM408 290q47 0 115 -174h-29q-86 29 -86 174zM234 -86q101 -152 231 -203q0 80 -202 203h-29zM610 -318v-29q0 -79 319 -145h29v29q-93 0 -348 145z" />
    <glyph glyph-name="eacute" unicode="&#xe9;" horiz-adv-x="2341" 
d="M1624 2404h87q58 -9 58 -58q-134 0 -174 -174h29q0 29 29 29v-58q-145 -85 -145 -260l203 -29q67 0 231 376l203 174h58q58 -9 58 -58q-228 -182 -435 -608h-318q-116 45 -174 203q89 282 290 463zM1855 2346v-29q0 -41 -86 -87h-58q12 60 144 116zM1363 1506
q116 0 406 -405q29 -199 57 -261q0 -463 -173 -463q-120 0 -232 -29q-273 29 -521 29h-290q0 -208 637 -348q158 0 406 145q231 -18 231 -87v-29q0 -29 -29 -29q40 -162 87 -231v-174q-61 0 -347 -174q-198 -29 -319 -29h-376q-585 0 -840 927q98 603 319 811
q376 347 984 347zM176 319q58 -9 58 -58v-29q0 -29 -29 -29q195 -637 637 -637h58l-29 58h58q118 -87 434 -87v58l-87 116h29q129 -116 145 -116h87q289 109 289 145q-86 211 -86 260h-29q-576 -115 -666 -115q0 58 -58 58h-145v-29l29 -58h-29q-178 137 -348 376l29 145
v203q203 -39 203 -87q29 0 29 29l637 -58q119 58 174 58h116l58 347q0 493 -637 493v29q-647 -245 -869 -753q0 -17 -58 -319zM292 174q88 -48 318 -376v-29q-98 0 -318 405zM726 116v-29l58 -29h58v29q-65 0 -116 29zM610 -231h87l29 -58h-29q-56 29 -87 29v29z" />
    <glyph glyph-name="ecircumflex" unicode="&#xea;" horiz-adv-x="1819" 
d="M842 2288q201 -76 637 -579v-58q0 -47 -203 -116q-146 0 -347 203h-29q-216 -232 -290 -232q-146 51 -289 261q9 67 492 521h29zM842 2172q0 -72 -203 -231q0 -97 -145 -145v-29q76 -143 116 -145q138 145 232 145v58h116q122 -116 231 -116h29q58 0 58 58
q-44 9 -376 405h-58zM726 1477q673 0 898 -434q116 -247 116 -376q-76 -186 -145 -203h-58q-365 0 -985 -116h-29v-116q108 -203 261 -203h58q353 0 608 261q51 29 116 29l-29 -58q203 -394 203 -492q-182 -319 -493 -319q-105 -29 -318 -29h-58q-323 16 -695 377
q-116 297 -116 463q0 695 290 985q183 231 376 231zM147 290q58 -147 58 -203l-29 -58q138 -310 318 -376v29q-29 0 -29 29h29q155 -174 435 -174q659 188 666 232q0 22 29 174q-107 260 -145 260q-188 -260 -550 -260h-174q-253 0 -405 492q211 87 260 87v-29
q657 116 985 202q0 356 -377 609q-223 87 -405 87h-87q-394 0 -550 -724q0 -377 -29 -377z" />
    <glyph glyph-name="ograve" unicode="&#xf2;" horiz-adv-x="2023" 
d="M89 2375h116q159 0 463 -434l58 -29v29l-232 405h29q198 -260 232 -260q0 28 29 28q0 -38 145 -144q50 29 116 29v29l-261 289v58h58q149 -108 347 -376v-58l-550 -116q0 45 -463 405l-87 116v29zM1247 1506q185 0 435 -318v-29l-29 -58q289 -227 289 -550v-29
q0 -654 -811 -927h-57q-424 0 -927 521q-87 255 -87 377q121 984 869 984q198 29 318 29zM379 1130v-29q247 232 752 232q239 0 493 -174v29q-226 231 -406 231q-644 0 -839 -289zM234 695q29 0 29 -28q-58 0 -58 -87q40 -203 116 -203l-29 -58q63 -158 463 -521h29
q-58 94 -58 145l232 -174h58v29l-58 87h58l87 -58h28l-57 87h29l144 -58v58l145 -29l203 144v58q29 0 29 -29q202 116 202 464q-40 0 -173 173l145 -28h28v28q0 349 -550 551h-260q-557 0 -782 -522v-29zM1479 898q42 0 87 -87v-29q-42 0 -87 87v29zM1566 782h29
q58 -9 58 -58v-29q-42 0 -87 87zM292 174v-29q0 -96 289 -289v29q-257 286 -289 289z" />
    <glyph glyph-name="oacute" unicode="&#xf3;" horiz-adv-x="2196" 
d="M1218 2462h58q127 0 377 -203h29l87 58v-203q-261 -451 -261 -521h-116q-405 250 -405 319q0 123 116 318q58 232 115 232zM1276 2404q145 -382 145 -405q-145 66 -145 260h-58q0 -50 -58 -145q91 -278 261 -405q58 0 58 58v58l-58 87v58l116 -87h29q0 327 -261 521h-29z
M1566 2201v-173h87v115q0 58 -58 58h-29zM1074 1941q9 -58 57 -58h58v29q-29 56 -29 87h-29q-57 -9 -57 -58zM1334 1246l145 -29l58 29q376 -106 376 -203q0 -29 -29 -29q232 -325 232 -521v-145q0 -558 -405 -898q-260 -116 -464 -116h-318q-811 94 -811 609q-29 0 -58 260
q138 496 579 782q521 261 695 261zM292 377q634 -744 955 -956h29v29l-173 232v29q229 -232 318 -232q37 0 145 145l58 -29q0 34 202 203q145 135 145 434q0 116 -58 377h29q58 0 58 -87h29v58q0 211 -347 521v-29l173 -203v-58h-29q-253 348 -550 348q-868 -306 -868 -550
q-47 0 -116 -232zM1740 290q41 0 86 -87v-58q-41 0 -86 87v58zM263 232v-58q724 -730 724 -782h87v29q-228 293 -782 811h-29zM263 -144q0 -196 405 -406h58q-386 406 -434 406h-29zM1218 -202q80 0 232 -232l-58 -29l-174 232v29z" />
    <glyph glyph-name="ocircumflex" unicode="&#xf4;" horiz-adv-x="1849" 
d="M813 2346q637 -456 637 -666q-54 -105 -347 -318q-127 0 -348 318q-179 -347 -376 -347q-196 0 -261 289q136 107 608 724h87zM813 2230q0 -58 -290 -376q18 -232 87 -232q137 203 174 203h29l58 -29q0 29 29 29q111 -318 174 -319h57l203 174q-33 153 -492 550h-29z
M436 1767q0 -40 -86 -174q29 -56 29 -87h57q42 0 87 87q-29 174 -87 174zM929 1217q710 0 840 -869v-203q0 -615 -811 -840q-648 0 -811 406q-87 196 -87 318v203q0 652 840 985h29zM987 1130v-29q152 -29 173 -29h58v29q-21 0 -173 29h-58zM726 927v29l29 58
q-130 0 -463 -434h58l-29 -58l-58 29h-29l29 -116q-58 -95 -58 -174v-174h58l-29 -58v-202l58 29v-29l-29 -145h58l58 29q0 -203 86 -203q33 0 232 174h29q-174 -187 -174 -203v-29q189 -58 261 -58h58q724 168 724 724v58q0 398 -232 666v58h58v29q-186 87 -290 87
l-144 -29v58q-75 0 -261 -116zM697 927h29q0 -39 -145 -145h-29q0 39 145 145zM1045 869v-29q0 -21 -232 -202h-29q190 231 261 231zM1160 753h29v-58l-115 -28q0 41 86 86zM1595 695v-57q58 -185 58 -232h29v29l-58 260h-29zM726 609h29q0 -39 -145 -145h-29q0 39 145 145z
M1305 29v-29q0 -41 -87 -86v29q0 41 87 86zM900 -115h29q0 -39 -145 -145v29q0 45 116 116zM1160 -115v-29q0 -46 -115 -116v29q0 45 115 116z" />
    <glyph glyph-name="otilde" unicode="&#xf5;" horiz-adv-x="2022" 
d="M1537 2172h29v-29q0 -57 -58 -57h-29v28q9 58 58 58zM1740 2143h29q0 -359 173 -550v-29q-87 0 -87 -87h-173q-423 58 -464 58q-215 0 -492 -260h-29q-142 72 -261 376h-86v87l376 290h232l289 -145q288 44 493 260zM639 1593l87 -58q0 107 174 406h-87
q-174 -67 -174 -348zM1508 1767h-29v58q-348 -21 -348 -145q29 0 29 -29q29 0 29 29q319 -51 319 -87l58 29h174l-29 145v145h-29zM929 1883q-145 -281 -145 -319q261 0 376 261q-105 58 -231 58zM1189 1304q411 -123 493 -319v-58h-58q-21 145 -87 145h-29
q145 -268 145 -434v-203q0 -611 -406 -898q-224 -29 -347 -87q-309 77 -435 145q-405 218 -405 666q0 65 29 116q-29 56 -29 87l290 463q483 339 839 377zM958 1101q58 -95 58 -174v-29q-87 29 -87 174q-299 0 -493 -261q-133 0 -260 -434h29q509 -753 695 -753h29l-29 58
v29h29l58 -29v116q-116 0 -116 145l203 -174h57q0 97 -86 203v28q19 0 144 -144h29v58l-58 86v29q42 0 87 -86q51 29 116 29v28q0 97 -87 203v58q66 0 87 -145h29q0 87 87 87v29q-176 148 -405 579q347 -366 347 -463h29q58 0 58 58v289q0 390 -348 435zM697 667
q81 -40 319 -435v-29q-107 88 -319 435v29zM1189 406q58 0 58 -87v-29h-29zM813 319q42 0 87 -87v-29q-42 0 -87 87v29zM147 203q177 -395 463 -550h29l-434 608q-58 -9 -58 -58z" />
    <glyph glyph-name="uacute" unicode="&#xfa;" 
d="M2029 2491l29 -58q-370 -758 -521 -898h-58q-51 0 -319 116v58q0 138 290 608q0 69 579 174zM1653 2317v-58l-58 29h-29q-44 0 -87 -116q87 -144 87 -202v-29h-29q-21 145 -87 145h-58v-29q121 -203 174 -203q0 38 145 145v87q-29 56 -29 86l58 -29h29q57 0 57 58
q0 46 -115 116h-58zM1334 1999l-29 -145q0 -41 174 -174q58 0 58 58q0 108 -203 261zM1392 1391h261q260 0 260 -261q29 -181 29 -406v-752q0 -515 -753 -638h-86q-985 115 -985 869v377q0 78 -58 173q122 453 203 551l202 -29h319v-348q0 -396 319 -550h86l145 29v232
q0 119 -29 231q29 249 87 522zM1537 1275q-87 -569 -87 -637l29 -261q0 -290 -319 -290q-463 133 -463 608q-29 0 -29 232h29q0 29 -29 29l29 145v29q0 58 -58 58h-29q-376 -443 -376 -695q17 0 174 174v-29q-174 -231 -174 -348q29 -206 29 -232h-29q79 -289 174 -289
q0 -65 231 -203l203 174v-29q-87 -128 -87 -203l58 -29h58q0 128 145 203v-29q-116 -130 -116 -203h318q580 107 580 522v347q0 65 28 116q-86 369 -115 782q29 0 29 29l-58 29h-145zM292 898v-29h29q0 66 173 290h-115q-64 0 -87 -261zM1624 1014h29v-116q0 -41 -87 -87v58
q58 94 58 145zM1305 -28v-29q0 -38 -260 -261h-29q87 145 289 290z" />
    <glyph glyph-name="quoteleft" unicode="&#x2018;" horiz-adv-x="1472" 
d="M842 881q-782 29 -782 116v29q436 622 724 926h116q492 0 492 -115q0 -214 -434 -753q0 -113 -116 -203zM1161 1779q0 41 -87 87h-145q-163 0 -376 -377q-202 -218 -319 -434v-29h405q241 0 319 260q0 62 203 464v29z" />
    <glyph glyph-name="quoteright" unicode="&#x2019;" horiz-adv-x="1472" 
d="M610 1952q782 -29 782 -116v-29q-436 -622 -724 -926h-116q-492 0 -492 115q0 214 434 753q0 113 116 203zM291 1054q0 -41 87 -87h145q163 0 376 377q202 218 319 434v29h-405q-241 0 -319 -260q0 -62 -203 -464v-29z" />
    <glyph glyph-name="quotedblleft" unicode="&#x201c;" horiz-adv-x="3337" 
d="M842 881q-782 29 -782 116v29q436 622 724 926h116q492 0 492 -115q0 -214 -434 -753q0 -113 -116 -203zM1161 1779q0 41 -87 87h-145q-163 0 -376 -377q-202 -218 -319 -434v-29h405q241 0 319 260q0 62 203 464v29zM2707 881q-782 29 -782 116v29q436 622 724 926h116
q492 0 492 -115q0 -214 -434 -753q0 -113 -116 -203zM3026 1779q0 41 -87 87h-145q-163 0 -376 -377q-202 -218 -319 -434v-29h405q241 0 319 260q0 62 203 464v29z" />
    <glyph glyph-name="quotedblright" unicode="&#x201d;" horiz-adv-x="3337" 
d="M610 1952q782 -29 782 -116v-29q-436 -622 -724 -926h-116q-492 0 -492 115q0 214 434 753q0 113 116 203zM291 1054q0 -41 87 -87h145q163 0 376 377q202 218 319 434v29h-405q-241 0 -319 -260q0 -62 -203 -464v-29zM2475 1952q782 -29 782 -116v-29
q-436 -622 -724 -926h-116q-492 0 -492 115q0 214 434 753q0 113 116 203zM2156 1054q0 -41 87 -87h145q163 0 376 377q202 218 319 434v29h-405q-241 0 -319 -260q0 -62 -203 -464v-29z" />
    <glyph glyph-name="bullet" unicode="&#x2022;" horiz-adv-x="1733" 
d="M842 1651q537 0 782 -637q0 -31 29 -87q0 -566 -811 -869q-318 0 -579 290q-30 68 -203 290q56 29 87 29v173q0 413 579 782q15 0 116 29zM1131 1506v-29l232 -173h29q-41 92 -261 202zM755 1391q91 -156 434 -232h58v29q0 136 -318 203h-174zM321 898q29 0 29 -29
q56 29 86 29q354 -202 377 -202h29v28q-352 232 -406 232v29q10 58 58 58l174 -87h29v29q-89 0 -203 174v58h29q589 -319 637 -319q-65 123 -492 406v58h-58q-144 0 -289 -435v-29zM1160 1043v-29l203 -174v29q0 174 -203 174zM1450 985v-58l29 -203h29v261h-58zM292 753
q371 -289 521 -289q-158 155 -492 289h-29zM1247 753q0 -43 116 -86v86h-116zM1016 377v-58h58q57 0 57 58h-115zM581 348v-29q168 -87 203 -87h29v29q-28 0 -203 87h-29z" />
  </font>
</defs>
</svg>
